ISO-10303-21;
HEADER;
/* Generated by software containing ST-Developer
 * from STEP Tools, Inc. (www.steptools.com) 
 */
/* OPTION: using custom renumber hook */

FILE_DESCRIPTION(
/* description */ ('STEP AP242 Edition 2',
'CAx-IF Rec.Pracs.---Representation and Presentation of Product Manufa
cturing Information (PMI)---4.0---2014-10-13',
'CAx-IF Rec.Pracs.---3D Tessellated Geometry---0.4---2014-09-14','2;1',
'CAx-IF Rec.Pracs.---User Defined Attributes---1.5---2016-08-15'),
/* implementation_level */ '2;1');

FILE_NAME(
/* name */ 'Part Studio 1 - Part 1',
/* time_stamp */ '2026-04-15T13:29:56Z',
/* author */ (''),
/* organization */ (''),
/* preprocessor_version */ 'ST-DEVELOPER v20',
/* originating_system */ 'ONSHAPE BY PTC INC, 1.213',
/* authorisation */ '  ');

FILE_SCHEMA (('AP242_MANAGED_MODEL_BASED_3D_ENGINEERING_MIM_LF { 1 0 10303 442 3 1 4 }'));
ENDSEC;

DATA;
#10=SHAPE_REPRESENTATION_RELATIONSHIP('','',#1167,#11);
#11=ADVANCED_BREP_SHAPE_REPRESENTATION('',(#1165),#1929);
#12=B_SPLINE_SURFACE_WITH_KNOTS('',1,3,((#1853,#1854,#1855,#1856,#1857,
#1858),(#1859,#1860,#1861,#1862,#1863,#1864)),.RULED_SURF.,.F.,.F.,.F.,
(2,2),(4,2,4),(0.,1.),(5.5170226574858,6.28318530717959,7.04934795687337),
 .UNSPECIFIED.);
#13=B_SPLINE_SURFACE_WITH_KNOTS('',1,3,((#1869,#1870,#1871,#1872,#1873,
#1874),(#1875,#1876,#1877,#1878,#1879,#1880)),.RULED_SURF.,.F.,.F.,.F.,
(2,2),(4,2,4),(0.,1.),(2.37543000389601,3.14159265358979,3.90775530328358),
 .UNSPECIFIED.);
#14=B_SPLINE_SURFACE_WITH_KNOTS('',1,3,((#1895,#1896,#1897,#1898,#1899,
#1900),(#1901,#1902,#1903,#1904,#1905,#1906)),.RULED_SURF.,.F.,.F.,.F.,
(2,2),(4,2,4),(0.,1.),(2.37543000389601,3.1415926535898,3.90775530328358),
 .UNSPECIFIED.);
#15=B_SPLINE_SURFACE_WITH_KNOTS('',1,3,((#1911,#1912,#1913,#1914,#1915,
#1916),(#1917,#1918,#1919,#1920,#1921,#1922)),.RULED_SURF.,.F.,.F.,.F.,
(2,2),(4,2,4),(0.,1.),(5.5170226574858,6.28318530717959,7.04934795687337),
 .UNSPECIFIED.);
#16=CIRCLE('',#1223,0.000123796203808616);
#17=CIRCLE('',#1224,0.000123796203808616);
#18=CYLINDRICAL_SURFACE('',#1197,0.002);
#19=CYLINDRICAL_SURFACE('',#1198,0.002);
#20=CYLINDRICAL_SURFACE('',#1199,0.002);
#21=CYLINDRICAL_SURFACE('',#1200,0.002);
#22=CYLINDRICAL_SURFACE('',#1222,0.000123796203808616);
#23=B_SPLINE_CURVE_WITH_KNOTS('',3,(#1531,#1532,#1533,#1534,#1535),
 .UNSPECIFIED.,.F.,.F.,(4,1,4),(0.,0.5,1.),.UNSPECIFIED.);
#24=B_SPLINE_CURVE_WITH_KNOTS('',3,(#1540,#1541,#1542,#1543,#1544),
 .UNSPECIFIED.,.F.,.F.,(4,1,4),(0.,0.5,1.),.UNSPECIFIED.);
#25=B_SPLINE_CURVE_WITH_KNOTS('',3,(#1548,#1549,#1550,#1551,#1552),
 .UNSPECIFIED.,.F.,.F.,(4,1,4),(0.,0.5,1.),.UNSPECIFIED.);
#26=B_SPLINE_CURVE_WITH_KNOTS('',3,(#1556,#1557,#1558,#1559,#1560),
 .UNSPECIFIED.,.F.,.F.,(4,1,4),(0.,0.5,1.),.UNSPECIFIED.);
#27=B_SPLINE_CURVE_WITH_KNOTS('',3,(#1702,#1703,#1704,#1705),
 .UNSPECIFIED.,.F.,.F.,(4,4),(0.,1.),.UNSPECIFIED.);
#28=B_SPLINE_CURVE_WITH_KNOTS('',3,(#1707,#1708,#1709,#1710),
 .UNSPECIFIED.,.F.,.F.,(4,4),(0.,1.),.UNSPECIFIED.);
#29=B_SPLINE_CURVE_WITH_KNOTS('',3,(#1712,#1713,#1714,#1715),
 .UNSPECIFIED.,.F.,.F.,(4,4),(0.,1.),.UNSPECIFIED.);
#30=B_SPLINE_CURVE_WITH_KNOTS('',3,(#1717,#1718,#1719,#1720),
 .UNSPECIFIED.,.F.,.F.,(4,4),(0.,1.),.UNSPECIFIED.);
#31=B_SPLINE_CURVE_WITH_KNOTS('',3,(#1845,#1846,#1847,#1848),
 .UNSPECIFIED.,.F.,.F.,(4,4),(0.,1.),.UNSPECIFIED.);
#32=B_SPLINE_CURVE_WITH_KNOTS('',3,(#1849,#1850,#1851,#1852),
 .UNSPECIFIED.,.F.,.F.,(4,4),(0.,1.),.UNSPECIFIED.);
#33=B_SPLINE_CURVE_WITH_KNOTS('',3,(#1865,#1866,#1867,#1868),
 .UNSPECIFIED.,.F.,.F.,(4,4),(0.,1.),.UNSPECIFIED.);
#34=B_SPLINE_CURVE_WITH_KNOTS('',3,(#1881,#1882,#1883,#1884),
 .UNSPECIFIED.,.F.,.F.,(4,4),(0.,1.),.UNSPECIFIED.);
#35=B_SPLINE_CURVE_WITH_KNOTS('',3,(#1886,#1887,#1888,#1889),
 .UNSPECIFIED.,.F.,.F.,(4,4),(0.,1.),.UNSPECIFIED.);
#36=B_SPLINE_CURVE_WITH_KNOTS('',3,(#1891,#1892,#1893,#1894),
 .UNSPECIFIED.,.F.,.F.,(4,4),(0.,1.),.UNSPECIFIED.);
#37=B_SPLINE_CURVE_WITH_KNOTS('',3,(#1907,#1908,#1909,#1910),
 .UNSPECIFIED.,.F.,.F.,(4,4),(0.,1.),.UNSPECIFIED.);
#38=B_SPLINE_CURVE_WITH_KNOTS('',3,(#1923,#1924,#1925,#1926),
 .UNSPECIFIED.,.F.,.F.,(4,4),(0.,1.),.UNSPECIFIED.);
#39=ELLIPSE('',#1170,0.00207846096908265,0.002);
#40=ELLIPSE('',#1171,0.00207846096908265,0.002);
#41=ELLIPSE('',#1172,0.00207846096908265,0.002);
#42=ELLIPSE('',#1173,0.00207846096908265,0.002);
#43=ORIENTED_EDGE('',*,*,#363,.F.);
#44=ORIENTED_EDGE('',*,*,#364,.T.);
#45=ORIENTED_EDGE('',*,*,#365,.F.);
#46=ORIENTED_EDGE('',*,*,#366,.T.);
#47=ORIENTED_EDGE('',*,*,#367,.T.);
#48=ORIENTED_EDGE('',*,*,#368,.T.);
#49=ORIENTED_EDGE('',*,*,#369,.T.);
#50=ORIENTED_EDGE('',*,*,#370,.T.);
#51=ORIENTED_EDGE('',*,*,#371,.F.);
#52=ORIENTED_EDGE('',*,*,#372,.T.);
#53=ORIENTED_EDGE('',*,*,#373,.T.);
#54=ORIENTED_EDGE('',*,*,#374,.F.);
#55=ORIENTED_EDGE('',*,*,#375,.T.);
#56=ORIENTED_EDGE('',*,*,#376,.T.);
#57=ORIENTED_EDGE('',*,*,#377,.T.);
#58=ORIENTED_EDGE('',*,*,#378,.T.);
#59=ORIENTED_EDGE('',*,*,#379,.T.);
#60=ORIENTED_EDGE('',*,*,#380,.T.);
#61=ORIENTED_EDGE('',*,*,#381,.T.);
#62=ORIENTED_EDGE('',*,*,#382,.T.);
#63=ORIENTED_EDGE('',*,*,#383,.F.);
#64=ORIENTED_EDGE('',*,*,#384,.F.);
#65=ORIENTED_EDGE('',*,*,#385,.F.);
#66=ORIENTED_EDGE('',*,*,#386,.F.);
#67=ORIENTED_EDGE('',*,*,#387,.F.);
#68=ORIENTED_EDGE('',*,*,#388,.F.);
#69=ORIENTED_EDGE('',*,*,#389,.F.);
#70=ORIENTED_EDGE('',*,*,#390,.F.);
#71=ORIENTED_EDGE('',*,*,#391,.F.);
#72=ORIENTED_EDGE('',*,*,#392,.F.);
#73=ORIENTED_EDGE('',*,*,#393,.F.);
#74=ORIENTED_EDGE('',*,*,#394,.F.);
#75=ORIENTED_EDGE('',*,*,#395,.T.);
#76=ORIENTED_EDGE('',*,*,#396,.T.);
#77=ORIENTED_EDGE('',*,*,#397,.T.);
#78=ORIENTED_EDGE('',*,*,#363,.T.);
#79=ORIENTED_EDGE('',*,*,#398,.T.);
#80=ORIENTED_EDGE('',*,*,#399,.T.);
#81=ORIENTED_EDGE('',*,*,#400,.T.);
#82=ORIENTED_EDGE('',*,*,#367,.F.);
#83=ORIENTED_EDGE('',*,*,#401,.T.);
#84=ORIENTED_EDGE('',*,*,#402,.T.);
#85=ORIENTED_EDGE('',*,*,#403,.T.);
#86=ORIENTED_EDGE('',*,*,#369,.F.);
#87=ORIENTED_EDGE('',*,*,#404,.T.);
#88=ORIENTED_EDGE('',*,*,#405,.T.);
#89=ORIENTED_EDGE('',*,*,#406,.T.);
#90=ORIENTED_EDGE('',*,*,#365,.T.);
#91=ORIENTED_EDGE('',*,*,#407,.F.);
#92=ORIENTED_EDGE('',*,*,#408,.T.);
#93=ORIENTED_EDGE('',*,*,#409,.T.);
#94=ORIENTED_EDGE('',*,*,#410,.T.);
#95=ORIENTED_EDGE('',*,*,#411,.T.);
#96=ORIENTED_EDGE('',*,*,#412,.F.);
#97=ORIENTED_EDGE('',*,*,#413,.T.);
#98=ORIENTED_EDGE('',*,*,#414,.F.);
#99=ORIENTED_EDGE('',*,*,#415,.F.);
#100=ORIENTED_EDGE('',*,*,#416,.F.);
#101=ORIENTED_EDGE('',*,*,#417,.F.);
#102=ORIENTED_EDGE('',*,*,#418,.T.);
#103=ORIENTED_EDGE('',*,*,#419,.F.);
#104=ORIENTED_EDGE('',*,*,#420,.T.);
#105=ORIENTED_EDGE('',*,*,#421,.T.);
#106=ORIENTED_EDGE('',*,*,#422,.F.);
#107=ORIENTED_EDGE('',*,*,#423,.T.);
#108=ORIENTED_EDGE('',*,*,#421,.F.);
#109=ORIENTED_EDGE('',*,*,#424,.F.);
#110=ORIENTED_EDGE('',*,*,#373,.F.);
#111=ORIENTED_EDGE('',*,*,#371,.T.);
#112=ORIENTED_EDGE('',*,*,#425,.T.);
#113=ORIENTED_EDGE('',*,*,#419,.T.);
#114=ORIENTED_EDGE('',*,*,#426,.F.);
#115=ORIENTED_EDGE('',*,*,#374,.T.);
#116=ORIENTED_EDGE('',*,*,#424,.T.);
#117=ORIENTED_EDGE('',*,*,#420,.F.);
#118=ORIENTED_EDGE('',*,*,#425,.F.);
#119=ORIENTED_EDGE('',*,*,#423,.F.);
#120=ORIENTED_EDGE('',*,*,#372,.F.);
#121=ORIENTED_EDGE('',*,*,#426,.T.);
#122=ORIENTED_EDGE('',*,*,#422,.T.);
#123=ORIENTED_EDGE('',*,*,#408,.F.);
#124=ORIENTED_EDGE('',*,*,#427,.T.);
#125=ORIENTED_EDGE('',*,*,#428,.F.);
#126=ORIENTED_EDGE('',*,*,#429,.F.);
#127=ORIENTED_EDGE('',*,*,#409,.F.);
#128=ORIENTED_EDGE('',*,*,#429,.T.);
#129=ORIENTED_EDGE('',*,*,#430,.F.);
#130=ORIENTED_EDGE('',*,*,#431,.F.);
#131=ORIENTED_EDGE('',*,*,#410,.F.);
#132=ORIENTED_EDGE('',*,*,#431,.T.);
#133=ORIENTED_EDGE('',*,*,#432,.F.);
#134=ORIENTED_EDGE('',*,*,#433,.F.);
#135=ORIENTED_EDGE('',*,*,#411,.F.);
#136=ORIENTED_EDGE('',*,*,#433,.T.);
#137=ORIENTED_EDGE('',*,*,#434,.F.);
#138=ORIENTED_EDGE('',*,*,#435,.F.);
#139=ORIENTED_EDGE('',*,*,#436,.F.);
#140=ORIENTED_EDGE('',*,*,#412,.T.);
#141=ORIENTED_EDGE('',*,*,#435,.T.);
#142=ORIENTED_EDGE('',*,*,#437,.T.);
#143=ORIENTED_EDGE('',*,*,#413,.F.);
#144=ORIENTED_EDGE('',*,*,#436,.T.);
#145=ORIENTED_EDGE('',*,*,#438,.F.);
#146=ORIENTED_EDGE('',*,*,#439,.F.);
#147=ORIENTED_EDGE('',*,*,#440,.F.);
#148=ORIENTED_EDGE('',*,*,#414,.T.);
#149=ORIENTED_EDGE('',*,*,#439,.T.);
#150=ORIENTED_EDGE('',*,*,#441,.T.);
#151=ORIENTED_EDGE('',*,*,#442,.F.);
#152=ORIENTED_EDGE('',*,*,#415,.T.);
#153=ORIENTED_EDGE('',*,*,#440,.T.);
#154=ORIENTED_EDGE('',*,*,#443,.T.);
#155=ORIENTED_EDGE('',*,*,#444,.F.);
#156=ORIENTED_EDGE('',*,*,#416,.T.);
#157=ORIENTED_EDGE('',*,*,#442,.T.);
#158=ORIENTED_EDGE('',*,*,#445,.T.);
#159=ORIENTED_EDGE('',*,*,#446,.F.);
#160=ORIENTED_EDGE('',*,*,#417,.T.);
#161=ORIENTED_EDGE('',*,*,#444,.T.);
#162=ORIENTED_EDGE('',*,*,#447,.T.);
#163=ORIENTED_EDGE('',*,*,#418,.F.);
#164=ORIENTED_EDGE('',*,*,#446,.T.);
#165=ORIENTED_EDGE('',*,*,#448,.F.);
#166=ORIENTED_EDGE('',*,*,#449,.F.);
#167=ORIENTED_EDGE('',*,*,#427,.F.);
#168=ORIENTED_EDGE('',*,*,#407,.T.);
#169=ORIENTED_EDGE('',*,*,#449,.T.);
#170=ORIENTED_EDGE('',*,*,#450,.T.);
#171=ORIENTED_EDGE('',*,*,#428,.T.);
#172=ORIENTED_EDGE('',*,*,#450,.F.);
#173=ORIENTED_EDGE('',*,*,#448,.T.);
#174=ORIENTED_EDGE('',*,*,#447,.F.);
#175=ORIENTED_EDGE('',*,*,#445,.F.);
#176=ORIENTED_EDGE('',*,*,#443,.F.);
#177=ORIENTED_EDGE('',*,*,#441,.F.);
#178=ORIENTED_EDGE('',*,*,#438,.T.);
#179=ORIENTED_EDGE('',*,*,#437,.F.);
#180=ORIENTED_EDGE('',*,*,#434,.T.);
#181=ORIENTED_EDGE('',*,*,#432,.T.);
#182=ORIENTED_EDGE('',*,*,#430,.T.);
#183=ORIENTED_EDGE('',*,*,#397,.F.);
#184=ORIENTED_EDGE('',*,*,#451,.T.);
#185=ORIENTED_EDGE('',*,*,#404,.F.);
#186=ORIENTED_EDGE('',*,*,#364,.F.);
#187=ORIENTED_EDGE('',*,*,#406,.F.);
#188=ORIENTED_EDGE('',*,*,#452,.T.);
#189=ORIENTED_EDGE('',*,*,#398,.F.);
#190=ORIENTED_EDGE('',*,*,#366,.F.);
#191=ORIENTED_EDGE('',*,*,#400,.F.);
#192=ORIENTED_EDGE('',*,*,#453,.T.);
#193=ORIENTED_EDGE('',*,*,#401,.F.);
#194=ORIENTED_EDGE('',*,*,#368,.F.);
#195=ORIENTED_EDGE('',*,*,#403,.F.);
#196=ORIENTED_EDGE('',*,*,#454,.T.);
#197=ORIENTED_EDGE('',*,*,#395,.F.);
#198=ORIENTED_EDGE('',*,*,#370,.F.);
#199=ORIENTED_EDGE('',*,*,#383,.T.);
#200=ORIENTED_EDGE('',*,*,#455,.F.);
#201=ORIENTED_EDGE('',*,*,#456,.F.);
#202=ORIENTED_EDGE('',*,*,#457,.T.);
#203=ORIENTED_EDGE('',*,*,#394,.T.);
#204=ORIENTED_EDGE('',*,*,#458,.F.);
#205=ORIENTED_EDGE('',*,*,#459,.F.);
#206=ORIENTED_EDGE('',*,*,#455,.T.);
#207=ORIENTED_EDGE('',*,*,#393,.T.);
#208=ORIENTED_EDGE('',*,*,#460,.F.);
#209=ORIENTED_EDGE('',*,*,#461,.F.);
#210=ORIENTED_EDGE('',*,*,#458,.T.);
#211=ORIENTED_EDGE('',*,*,#392,.T.);
#212=ORIENTED_EDGE('',*,*,#462,.F.);
#213=ORIENTED_EDGE('',*,*,#463,.F.);
#214=ORIENTED_EDGE('',*,*,#460,.T.);
#215=ORIENTED_EDGE('',*,*,#391,.T.);
#216=ORIENTED_EDGE('',*,*,#464,.F.);
#217=ORIENTED_EDGE('',*,*,#465,.F.);
#218=ORIENTED_EDGE('',*,*,#462,.T.);
#219=ORIENTED_EDGE('',*,*,#390,.T.);
#220=ORIENTED_EDGE('',*,*,#466,.F.);
#221=ORIENTED_EDGE('',*,*,#467,.F.);
#222=ORIENTED_EDGE('',*,*,#464,.T.);
#223=ORIENTED_EDGE('',*,*,#389,.T.);
#224=ORIENTED_EDGE('',*,*,#468,.F.);
#225=ORIENTED_EDGE('',*,*,#469,.F.);
#226=ORIENTED_EDGE('',*,*,#466,.T.);
#227=ORIENTED_EDGE('',*,*,#388,.T.);
#228=ORIENTED_EDGE('',*,*,#470,.F.);
#229=ORIENTED_EDGE('',*,*,#471,.F.);
#230=ORIENTED_EDGE('',*,*,#468,.T.);
#231=ORIENTED_EDGE('',*,*,#387,.T.);
#232=ORIENTED_EDGE('',*,*,#472,.F.);
#233=ORIENTED_EDGE('',*,*,#473,.F.);
#234=ORIENTED_EDGE('',*,*,#470,.T.);
#235=ORIENTED_EDGE('',*,*,#386,.T.);
#236=ORIENTED_EDGE('',*,*,#474,.F.);
#237=ORIENTED_EDGE('',*,*,#475,.F.);
#238=ORIENTED_EDGE('',*,*,#472,.T.);
#239=ORIENTED_EDGE('',*,*,#385,.T.);
#240=ORIENTED_EDGE('',*,*,#476,.F.);
#241=ORIENTED_EDGE('',*,*,#477,.F.);
#242=ORIENTED_EDGE('',*,*,#474,.T.);
#243=ORIENTED_EDGE('',*,*,#478,.F.);
#244=ORIENTED_EDGE('',*,*,#479,.F.);
#245=ORIENTED_EDGE('',*,*,#480,.T.);
#246=ORIENTED_EDGE('',*,*,#481,.T.);
#247=ORIENTED_EDGE('',*,*,#482,.T.);
#248=ORIENTED_EDGE('',*,*,#483,.F.);
#249=ORIENTED_EDGE('',*,*,#484,.F.);
#250=ORIENTED_EDGE('',*,*,#479,.T.);
#251=ORIENTED_EDGE('',*,*,#485,.T.);
#252=ORIENTED_EDGE('',*,*,#486,.F.);
#253=ORIENTED_EDGE('',*,*,#487,.F.);
#254=ORIENTED_EDGE('',*,*,#483,.T.);
#255=ORIENTED_EDGE('',*,*,#488,.T.);
#256=ORIENTED_EDGE('',*,*,#489,.F.);
#257=ORIENTED_EDGE('',*,*,#490,.F.);
#258=ORIENTED_EDGE('',*,*,#486,.T.);
#259=ORIENTED_EDGE('',*,*,#491,.T.);
#260=ORIENTED_EDGE('',*,*,#492,.F.);
#261=ORIENTED_EDGE('',*,*,#493,.F.);
#262=ORIENTED_EDGE('',*,*,#494,.T.);
#263=ORIENTED_EDGE('',*,*,#495,.T.);
#264=ORIENTED_EDGE('',*,*,#496,.F.);
#265=ORIENTED_EDGE('',*,*,#497,.F.);
#266=ORIENTED_EDGE('',*,*,#492,.T.);
#267=ORIENTED_EDGE('',*,*,#498,.T.);
#268=ORIENTED_EDGE('',*,*,#499,.F.);
#269=ORIENTED_EDGE('',*,*,#500,.F.);
#270=ORIENTED_EDGE('',*,*,#496,.T.);
#271=ORIENTED_EDGE('',*,*,#501,.T.);
#272=ORIENTED_EDGE('',*,*,#502,.F.);
#273=ORIENTED_EDGE('',*,*,#503,.F.);
#274=ORIENTED_EDGE('',*,*,#499,.T.);
#275=ORIENTED_EDGE('',*,*,#504,.T.);
#276=ORIENTED_EDGE('',*,*,#505,.F.);
#277=ORIENTED_EDGE('',*,*,#506,.F.);
#278=ORIENTED_EDGE('',*,*,#502,.T.);
#279=ORIENTED_EDGE('',*,*,#507,.T.);
#280=ORIENTED_EDGE('',*,*,#508,.F.);
#281=ORIENTED_EDGE('',*,*,#509,.F.);
#282=ORIENTED_EDGE('',*,*,#505,.T.);
#283=ORIENTED_EDGE('',*,*,#510,.T.);
#284=ORIENTED_EDGE('',*,*,#481,.F.);
#285=ORIENTED_EDGE('',*,*,#511,.F.);
#286=ORIENTED_EDGE('',*,*,#489,.T.);
#287=ORIENTED_EDGE('',*,*,#512,.T.);
#288=ORIENTED_EDGE('',*,*,#494,.F.);
#289=ORIENTED_EDGE('',*,*,#513,.F.);
#290=ORIENTED_EDGE('',*,*,#508,.T.);
#291=ORIENTED_EDGE('',*,*,#384,.T.);
#292=ORIENTED_EDGE('',*,*,#457,.F.);
#293=ORIENTED_EDGE('',*,*,#514,.F.);
#294=ORIENTED_EDGE('',*,*,#476,.T.);
#295=ORIENTED_EDGE('',*,*,#493,.T.);
#296=ORIENTED_EDGE('',*,*,#497,.T.);
#297=ORIENTED_EDGE('',*,*,#500,.T.);
#298=ORIENTED_EDGE('',*,*,#503,.T.);
#299=ORIENTED_EDGE('',*,*,#506,.T.);
#300=ORIENTED_EDGE('',*,*,#509,.T.);
#301=ORIENTED_EDGE('',*,*,#513,.T.);
#302=ORIENTED_EDGE('',*,*,#480,.F.);
#303=ORIENTED_EDGE('',*,*,#484,.T.);
#304=ORIENTED_EDGE('',*,*,#487,.T.);
#305=ORIENTED_EDGE('',*,*,#490,.T.);
#306=ORIENTED_EDGE('',*,*,#511,.T.);
#307=ORIENTED_EDGE('',*,*,#456,.T.);
#308=ORIENTED_EDGE('',*,*,#459,.T.);
#309=ORIENTED_EDGE('',*,*,#461,.T.);
#310=ORIENTED_EDGE('',*,*,#463,.T.);
#311=ORIENTED_EDGE('',*,*,#465,.T.);
#312=ORIENTED_EDGE('',*,*,#467,.T.);
#313=ORIENTED_EDGE('',*,*,#469,.T.);
#314=ORIENTED_EDGE('',*,*,#471,.T.);
#315=ORIENTED_EDGE('',*,*,#473,.T.);
#316=ORIENTED_EDGE('',*,*,#475,.T.);
#317=ORIENTED_EDGE('',*,*,#477,.T.);
#318=ORIENTED_EDGE('',*,*,#514,.T.);
#319=ORIENTED_EDGE('',*,*,#482,.F.);
#320=ORIENTED_EDGE('',*,*,#478,.T.);
#321=ORIENTED_EDGE('',*,*,#510,.F.);
#322=ORIENTED_EDGE('',*,*,#488,.F.);
#323=ORIENTED_EDGE('',*,*,#485,.F.);
#324=ORIENTED_EDGE('',*,*,#491,.F.);
#325=ORIENTED_EDGE('',*,*,#512,.F.);
#326=ORIENTED_EDGE('',*,*,#507,.F.);
#327=ORIENTED_EDGE('',*,*,#504,.F.);
#328=ORIENTED_EDGE('',*,*,#501,.F.);
#329=ORIENTED_EDGE('',*,*,#498,.F.);
#330=ORIENTED_EDGE('',*,*,#495,.F.);
#331=ORIENTED_EDGE('',*,*,#515,.F.);
#332=ORIENTED_EDGE('',*,*,#380,.F.);
#333=ORIENTED_EDGE('',*,*,#516,.F.);
#334=ORIENTED_EDGE('',*,*,#399,.F.);
#335=ORIENTED_EDGE('',*,*,#516,.T.);
#336=ORIENTED_EDGE('',*,*,#379,.F.);
#337=ORIENTED_EDGE('',*,*,#517,.F.);
#338=ORIENTED_EDGE('',*,*,#453,.F.);
#339=ORIENTED_EDGE('',*,*,#515,.T.);
#340=ORIENTED_EDGE('',*,*,#452,.F.);
#341=ORIENTED_EDGE('',*,*,#518,.F.);
#342=ORIENTED_EDGE('',*,*,#381,.F.);
#343=ORIENTED_EDGE('',*,*,#517,.T.);
#344=ORIENTED_EDGE('',*,*,#378,.F.);
#345=ORIENTED_EDGE('',*,*,#519,.F.);
#346=ORIENTED_EDGE('',*,*,#402,.F.);
#347=ORIENTED_EDGE('',*,*,#518,.T.);
#348=ORIENTED_EDGE('',*,*,#405,.F.);
#349=ORIENTED_EDGE('',*,*,#520,.F.);
#350=ORIENTED_EDGE('',*,*,#382,.F.);
#351=ORIENTED_EDGE('',*,*,#519,.T.);
#352=ORIENTED_EDGE('',*,*,#377,.F.);
#353=ORIENTED_EDGE('',*,*,#521,.F.);
#354=ORIENTED_EDGE('',*,*,#454,.F.);
#355=ORIENTED_EDGE('',*,*,#520,.T.);
#356=ORIENTED_EDGE('',*,*,#451,.F.);
#357=ORIENTED_EDGE('',*,*,#522,.F.);
#358=ORIENTED_EDGE('',*,*,#375,.F.);
#359=ORIENTED_EDGE('',*,*,#521,.T.);
#360=ORIENTED_EDGE('',*,*,#376,.F.);
#361=ORIENTED_EDGE('',*,*,#522,.T.);
#362=ORIENTED_EDGE('',*,*,#396,.F.);
#363=EDGE_CURVE('',#523,#524,#627,.T.);
#364=EDGE_CURVE('',#523,#525,#39,.F.);
#365=EDGE_CURVE('',#526,#525,#628,.T.);
#366=EDGE_CURVE('',#526,#527,#40,.F.);
#367=EDGE_CURVE('',#527,#528,#629,.T.);
#368=EDGE_CURVE('',#528,#529,#41,.F.);
#369=EDGE_CURVE('',#529,#530,#630,.T.);
#370=EDGE_CURVE('',#530,#524,#42,.F.);
#371=EDGE_CURVE('',#531,#532,#631,.T.);
#372=EDGE_CURVE('',#531,#533,#632,.T.);
#373=EDGE_CURVE('',#533,#534,#633,.T.);
#374=EDGE_CURVE('',#532,#534,#634,.T.);
#375=EDGE_CURVE('',#535,#536,#23,.T.);
#376=EDGE_CURVE('',#536,#537,#635,.T.);
#377=EDGE_CURVE('',#537,#538,#24,.T.);
#378=EDGE_CURVE('',#538,#539,#636,.T.);
#379=EDGE_CURVE('',#539,#540,#25,.T.);
#380=EDGE_CURVE('',#540,#541,#637,.T.);
#381=EDGE_CURVE('',#541,#542,#26,.T.);
#382=EDGE_CURVE('',#542,#535,#638,.T.);
#383=EDGE_CURVE('',#543,#544,#639,.T.);
#384=EDGE_CURVE('',#545,#543,#640,.T.);
#385=EDGE_CURVE('',#546,#545,#641,.T.);
#386=EDGE_CURVE('',#547,#546,#642,.T.);
#387=EDGE_CURVE('',#548,#547,#643,.T.);
#388=EDGE_CURVE('',#549,#548,#644,.T.);
#389=EDGE_CURVE('',#550,#549,#645,.T.);
#390=EDGE_CURVE('',#551,#550,#646,.T.);
#391=EDGE_CURVE('',#552,#551,#647,.T.);
#392=EDGE_CURVE('',#553,#552,#648,.T.);
#393=EDGE_CURVE('',#554,#553,#649,.T.);
#394=EDGE_CURVE('',#544,#554,#650,.T.);
#395=EDGE_CURVE('',#524,#555,#651,.T.);
#396=EDGE_CURVE('',#555,#556,#652,.T.);
#397=EDGE_CURVE('',#556,#523,#653,.F.);
#398=EDGE_CURVE('',#527,#557,#654,.T.);
#399=EDGE_CURVE('',#557,#558,#655,.T.);
#400=EDGE_CURVE('',#558,#528,#656,.F.);
#401=EDGE_CURVE('',#529,#559,#657,.T.);
#402=EDGE_CURVE('',#559,#560,#658,.T.);
#403=EDGE_CURVE('',#560,#530,#659,.F.);
#404=EDGE_CURVE('',#525,#561,#660,.T.);
#405=EDGE_CURVE('',#561,#562,#661,.T.);
#406=EDGE_CURVE('',#562,#526,#662,.F.);
#407=EDGE_CURVE('',#563,#564,#663,.T.);
#408=EDGE_CURVE('',#563,#565,#664,.T.);
#409=EDGE_CURVE('',#565,#566,#665,.T.);
#410=EDGE_CURVE('',#566,#567,#666,.T.);
#411=EDGE_CURVE('',#567,#568,#667,.T.);
#412=EDGE_CURVE('',#569,#568,#668,.T.);
#413=EDGE_CURVE('',#569,#570,#669,.T.);
#414=EDGE_CURVE('',#571,#570,#670,.T.);
#415=EDGE_CURVE('',#572,#571,#671,.T.);
#416=EDGE_CURVE('',#573,#572,#672,.T.);
#417=EDGE_CURVE('',#574,#573,#673,.T.);
#418=EDGE_CURVE('',#574,#564,#674,.T.);
#419=EDGE_CURVE('',#575,#576,#675,.T.);
#420=EDGE_CURVE('',#575,#577,#676,.T.);
#421=EDGE_CURVE('',#577,#578,#677,.T.);
#422=EDGE_CURVE('',#576,#578,#678,.T.);
#423=EDGE_CURVE('',#533,#578,#679,.T.);
#424=EDGE_CURVE('',#534,#577,#680,.T.);
#425=EDGE_CURVE('',#532,#575,#681,.T.);
#426=EDGE_CURVE('',#531,#576,#682,.T.);
#427=EDGE_CURVE('',#563,#579,#683,.T.);
#428=EDGE_CURVE('',#580,#579,#684,.T.);
#429=EDGE_CURVE('',#565,#580,#685,.T.);
#430=EDGE_CURVE('',#581,#580,#686,.T.);
#431=EDGE_CURVE('',#566,#581,#687,.T.);
#432=EDGE_CURVE('',#582,#581,#688,.T.);
#433=EDGE_CURVE('',#567,#582,#689,.T.);
#434=EDGE_CURVE('',#583,#582,#690,.T.);
#435=EDGE_CURVE('',#568,#583,#691,.T.);
#436=EDGE_CURVE('',#569,#584,#692,.T.);
#437=EDGE_CURVE('',#583,#584,#693,.T.);
#438=EDGE_CURVE('',#585,#584,#694,.T.);
#439=EDGE_CURVE('',#570,#585,#695,.T.);
#440=EDGE_CURVE('',#571,#586,#696,.T.);
#441=EDGE_CURVE('',#585,#586,#697,.T.);
#442=EDGE_CURVE('',#572,#587,#698,.T.);
#443=EDGE_CURVE('',#586,#587,#699,.T.);
#444=EDGE_CURVE('',#573,#588,#700,.T.);
#445=EDGE_CURVE('',#587,#588,#701,.T.);
#446=EDGE_CURVE('',#574,#589,#702,.T.);
#447=EDGE_CURVE('',#588,#589,#703,.T.);
#448=EDGE_CURVE('',#590,#589,#704,.T.);
#449=EDGE_CURVE('',#564,#590,#705,.T.);
#450=EDGE_CURVE('',#590,#579,#706,.T.);
#451=EDGE_CURVE('',#556,#561,#27,.T.);
#452=EDGE_CURVE('',#562,#557,#28,.T.);
#453=EDGE_CURVE('',#558,#559,#29,.T.);
#454=EDGE_CURVE('',#560,#555,#30,.T.);
#455=EDGE_CURVE('',#591,#544,#707,.T.);
#456=EDGE_CURVE('',#592,#591,#708,.T.);
#457=EDGE_CURVE('',#592,#543,#709,.T.);
#458=EDGE_CURVE('',#593,#554,#710,.T.);
#459=EDGE_CURVE('',#591,#593,#711,.T.);
#460=EDGE_CURVE('',#594,#553,#712,.T.);
#461=EDGE_CURVE('',#593,#594,#713,.T.);
#462=EDGE_CURVE('',#595,#552,#714,.T.);
#463=EDGE_CURVE('',#594,#595,#715,.T.);
#464=EDGE_CURVE('',#596,#551,#716,.T.);
#465=EDGE_CURVE('',#595,#596,#717,.T.);
#466=EDGE_CURVE('',#597,#550,#718,.T.);
#467=EDGE_CURVE('',#596,#597,#719,.T.);
#468=EDGE_CURVE('',#598,#549,#720,.T.);
#469=EDGE_CURVE('',#597,#598,#721,.T.);
#470=EDGE_CURVE('',#599,#548,#722,.T.);
#471=EDGE_CURVE('',#598,#599,#723,.T.);
#472=EDGE_CURVE('',#600,#547,#724,.T.);
#473=EDGE_CURVE('',#599,#600,#725,.T.);
#474=EDGE_CURVE('',#601,#546,#726,.T.);
#475=EDGE_CURVE('',#600,#601,#727,.T.);
#476=EDGE_CURVE('',#602,#545,#728,.T.);
#477=EDGE_CURVE('',#601,#602,#729,.T.);
#478=EDGE_CURVE('',#603,#604,#730,.T.);
#479=EDGE_CURVE('',#605,#603,#731,.T.);
#480=EDGE_CURVE('',#605,#606,#732,.T.);
#481=EDGE_CURVE('',#606,#604,#733,.T.);
#482=EDGE_CURVE('',#603,#607,#734,.T.);
#483=EDGE_CURVE('',#608,#607,#735,.T.);
#484=EDGE_CURVE('',#605,#608,#736,.T.);
#485=EDGE_CURVE('',#607,#609,#737,.T.);
#486=EDGE_CURVE('',#610,#609,#738,.T.);
#487=EDGE_CURVE('',#608,#610,#739,.T.);
#488=EDGE_CURVE('',#609,#611,#740,.T.);
#489=EDGE_CURVE('',#612,#611,#741,.T.);
#490=EDGE_CURVE('',#610,#612,#742,.T.);
#491=EDGE_CURVE('',#613,#614,#743,.T.);
#492=EDGE_CURVE('',#615,#614,#744,.T.);
#493=EDGE_CURVE('',#616,#615,#745,.T.);
#494=EDGE_CURVE('',#616,#613,#746,.T.);
#495=EDGE_CURVE('',#614,#617,#747,.T.);
#496=EDGE_CURVE('',#618,#617,#748,.T.);
#497=EDGE_CURVE('',#615,#618,#749,.T.);
#498=EDGE_CURVE('',#617,#619,#750,.T.);
#499=EDGE_CURVE('',#620,#619,#751,.T.);
#500=EDGE_CURVE('',#618,#620,#752,.T.);
#501=EDGE_CURVE('',#619,#621,#753,.T.);
#502=EDGE_CURVE('',#622,#621,#754,.T.);
#503=EDGE_CURVE('',#620,#622,#755,.T.);
#504=EDGE_CURVE('',#621,#623,#756,.T.);
#505=EDGE_CURVE('',#624,#623,#757,.T.);
#506=EDGE_CURVE('',#622,#624,#758,.T.);
#507=EDGE_CURVE('',#623,#625,#759,.T.);
#508=EDGE_CURVE('',#626,#625,#760,.T.);
#509=EDGE_CURVE('',#624,#626,#761,.T.);
#510=EDGE_CURVE('',#611,#604,#16,.T.);
#511=EDGE_CURVE('',#612,#606,#17,.T.);
#512=EDGE_CURVE('',#625,#613,#762,.T.);
#513=EDGE_CURVE('',#626,#616,#763,.T.);
#514=EDGE_CURVE('',#602,#592,#764,.T.);
#515=EDGE_CURVE('',#541,#557,#31,.F.);
#516=EDGE_CURVE('',#558,#540,#32,.F.);
#517=EDGE_CURVE('',#559,#539,#33,.T.);
#518=EDGE_CURVE('',#542,#562,#34,.T.);
#519=EDGE_CURVE('',#560,#538,#35,.F.);
#520=EDGE_CURVE('',#535,#561,#36,.F.);
#521=EDGE_CURVE('',#555,#537,#37,.T.);
#522=EDGE_CURVE('',#536,#556,#38,.T.);
#523=VERTEX_POINT('',#1507);
#524=VERTEX_POINT('',#1508);
#525=VERTEX_POINT('',#1510);
#526=VERTEX_POINT('',#1512);
#527=VERTEX_POINT('',#1514);
#528=VERTEX_POINT('',#1516);
#529=VERTEX_POINT('',#1518);
#530=VERTEX_POINT('',#1520);
#531=VERTEX_POINT('',#1523);
#532=VERTEX_POINT('',#1524);
#533=VERTEX_POINT('',#1526);
#534=VERTEX_POINT('',#1528);
#535=VERTEX_POINT('',#1536);
#536=VERTEX_POINT('',#1537);
#537=VERTEX_POINT('',#1539);
#538=VERTEX_POINT('',#1545);
#539=VERTEX_POINT('',#1547);
#540=VERTEX_POINT('',#1553);
#541=VERTEX_POINT('',#1555);
#542=VERTEX_POINT('',#1561);
#543=VERTEX_POINT('',#1564);
#544=VERTEX_POINT('',#1565);
#545=VERTEX_POINT('',#1567);
#546=VERTEX_POINT('',#1569);
#547=VERTEX_POINT('',#1571);
#548=VERTEX_POINT('',#1573);
#549=VERTEX_POINT('',#1575);
#550=VERTEX_POINT('',#1577);
#551=VERTEX_POINT('',#1579);
#552=VERTEX_POINT('',#1581);
#553=VERTEX_POINT('',#1583);
#554=VERTEX_POINT('',#1585);
#555=VERTEX_POINT('',#1589);
#556=VERTEX_POINT('',#1591);
#557=VERTEX_POINT('',#1595);
#558=VERTEX_POINT('',#1597);
#559=VERTEX_POINT('',#1601);
#560=VERTEX_POINT('',#1603);
#561=VERTEX_POINT('',#1607);
#562=VERTEX_POINT('',#1609);
#563=VERTEX_POINT('',#1613);
#564=VERTEX_POINT('',#1614);
#565=VERTEX_POINT('',#1616);
#566=VERTEX_POINT('',#1618);
#567=VERTEX_POINT('',#1620);
#568=VERTEX_POINT('',#1622);
#569=VERTEX_POINT('',#1624);
#570=VERTEX_POINT('',#1626);
#571=VERTEX_POINT('',#1628);
#572=VERTEX_POINT('',#1630);
#573=VERTEX_POINT('',#1632);
#574=VERTEX_POINT('',#1634);
#575=VERTEX_POINT('',#1637);
#576=VERTEX_POINT('',#1638);
#577=VERTEX_POINT('',#1640);
#578=VERTEX_POINT('',#1642);
#579=VERTEX_POINT('',#1654);
#580=VERTEX_POINT('',#1656);
#581=VERTEX_POINT('',#1660);
#582=VERTEX_POINT('',#1664);
#583=VERTEX_POINT('',#1668);
#584=VERTEX_POINT('',#1672);
#585=VERTEX_POINT('',#1676);
#586=VERTEX_POINT('',#1680);
#587=VERTEX_POINT('',#1684);
#588=VERTEX_POINT('',#1688);
#589=VERTEX_POINT('',#1692);
#590=VERTEX_POINT('',#1696);
#591=VERTEX_POINT('',#1723);
#592=VERTEX_POINT('',#1725);
#593=VERTEX_POINT('',#1729);
#594=VERTEX_POINT('',#1733);
#595=VERTEX_POINT('',#1737);
#596=VERTEX_POINT('',#1741);
#597=VERTEX_POINT('',#1745);
#598=VERTEX_POINT('',#1749);
#599=VERTEX_POINT('',#1753);
#600=VERTEX_POINT('',#1757);
#601=VERTEX_POINT('',#1761);
#602=VERTEX_POINT('',#1765);
#603=VERTEX_POINT('',#1769);
#604=VERTEX_POINT('',#1770);
#605=VERTEX_POINT('',#1772);
#606=VERTEX_POINT('',#1774);
#607=VERTEX_POINT('',#1778);
#608=VERTEX_POINT('',#1780);
#609=VERTEX_POINT('',#1784);
#610=VERTEX_POINT('',#1786);
#611=VERTEX_POINT('',#1790);
#612=VERTEX_POINT('',#1792);
#613=VERTEX_POINT('',#1796);
#614=VERTEX_POINT('',#1797);
#615=VERTEX_POINT('',#1799);
#616=VERTEX_POINT('',#1801);
#617=VERTEX_POINT('',#1805);
#618=VERTEX_POINT('',#1807);
#619=VERTEX_POINT('',#1811);
#620=VERTEX_POINT('',#1813);
#621=VERTEX_POINT('',#1817);
#622=VERTEX_POINT('',#1819);
#623=VERTEX_POINT('',#1823);
#624=VERTEX_POINT('',#1825);
#625=VERTEX_POINT('',#1829);
#626=VERTEX_POINT('',#1831);
#627=LINE('',#1506,#765);
#628=LINE('',#1511,#766);
#629=LINE('',#1515,#767);
#630=LINE('',#1519,#768);
#631=LINE('',#1522,#769);
#632=LINE('',#1525,#770);
#633=LINE('',#1527,#771);
#634=LINE('',#1529,#772);
#635=LINE('',#1538,#773);
#636=LINE('',#1546,#774);
#637=LINE('',#1554,#775);
#638=LINE('',#1562,#776);
#639=LINE('',#1563,#777);
#640=LINE('',#1566,#778);
#641=LINE('',#1568,#779);
#642=LINE('',#1570,#780);
#643=LINE('',#1572,#781);
#644=LINE('',#1574,#782);
#645=LINE('',#1576,#783);
#646=LINE('',#1578,#784);
#647=LINE('',#1580,#785);
#648=LINE('',#1582,#786);
#649=LINE('',#1584,#787);
#650=LINE('',#1586,#788);
#651=LINE('',#1588,#789);
#652=LINE('',#1590,#790);
#653=LINE('',#1592,#791);
#654=LINE('',#1594,#792);
#655=LINE('',#1596,#793);
#656=LINE('',#1598,#794);
#657=LINE('',#1600,#795);
#658=LINE('',#1602,#796);
#659=LINE('',#1604,#797);
#660=LINE('',#1606,#798);
#661=LINE('',#1608,#799);
#662=LINE('',#1610,#800);
#663=LINE('',#1612,#801);
#664=LINE('',#1615,#802);
#665=LINE('',#1617,#803);
#666=LINE('',#1619,#804);
#667=LINE('',#1621,#805);
#668=LINE('',#1623,#806);
#669=LINE('',#1625,#807);
#670=LINE('',#1627,#808);
#671=LINE('',#1629,#809);
#672=LINE('',#1631,#810);
#673=LINE('',#1633,#811);
#674=LINE('',#1635,#812);
#675=LINE('',#1636,#813);
#676=LINE('',#1639,#814);
#677=LINE('',#1641,#815);
#678=LINE('',#1643,#816);
#679=LINE('',#1645,#817);
#680=LINE('',#1646,#818);
#681=LINE('',#1648,#819);
#682=LINE('',#1649,#820);
#683=LINE('',#1653,#821);
#684=LINE('',#1655,#822);
#685=LINE('',#1657,#823);
#686=LINE('',#1659,#824);
#687=LINE('',#1661,#825);
#688=LINE('',#1663,#826);
#689=LINE('',#1665,#827);
#690=LINE('',#1667,#828);
#691=LINE('',#1669,#829);
#692=LINE('',#1671,#830);
#693=LINE('',#1673,#831);
#694=LINE('',#1675,#832);
#695=LINE('',#1677,#833);
#696=LINE('',#1679,#834);
#697=LINE('',#1681,#835);
#698=LINE('',#1683,#836);
#699=LINE('',#1685,#837);
#700=LINE('',#1687,#838);
#701=LINE('',#1689,#839);
#702=LINE('',#1691,#840);
#703=LINE('',#1693,#841);
#704=LINE('',#1695,#842);
#705=LINE('',#1697,#843);
#706=LINE('',#1699,#844);
#707=LINE('',#1722,#845);
#708=LINE('',#1724,#846);
#709=LINE('',#1726,#847);
#710=LINE('',#1728,#848);
#711=LINE('',#1730,#849);
#712=LINE('',#1732,#850);
#713=LINE('',#1734,#851);
#714=LINE('',#1736,#852);
#715=LINE('',#1738,#853);
#716=LINE('',#1740,#854);
#717=LINE('',#1742,#855);
#718=LINE('',#1744,#856);
#719=LINE('',#1746,#857);
#720=LINE('',#1748,#858);
#721=LINE('',#1750,#859);
#722=LINE('',#1752,#860);
#723=LINE('',#1754,#861);
#724=LINE('',#1756,#862);
#725=LINE('',#1758,#863);
#726=LINE('',#1760,#864);
#727=LINE('',#1762,#865);
#728=LINE('',#1764,#866);
#729=LINE('',#1766,#867);
#730=LINE('',#1768,#868);
#731=LINE('',#1771,#869);
#732=LINE('',#1773,#870);
#733=LINE('',#1775,#871);
#734=LINE('',#1777,#872);
#735=LINE('',#1779,#873);
#736=LINE('',#1781,#874);
#737=LINE('',#1783,#875);
#738=LINE('',#1785,#876);
#739=LINE('',#1787,#877);
#740=LINE('',#1789,#878);
#741=LINE('',#1791,#879);
#742=LINE('',#1793,#880);
#743=LINE('',#1795,#881);
#744=LINE('',#1798,#882);
#745=LINE('',#1800,#883);
#746=LINE('',#1802,#884);
#747=LINE('',#1804,#885);
#748=LINE('',#1806,#886);
#749=LINE('',#1808,#887);
#750=LINE('',#1810,#888);
#751=LINE('',#1812,#889);
#752=LINE('',#1814,#890);
#753=LINE('',#1816,#891);
#754=LINE('',#1818,#892);
#755=LINE('',#1820,#893);
#756=LINE('',#1822,#894);
#757=LINE('',#1824,#895);
#758=LINE('',#1826,#896);
#759=LINE('',#1828,#897);
#760=LINE('',#1830,#898);
#761=LINE('',#1832,#899);
#762=LINE('',#1837,#900);
#763=LINE('',#1838,#901);
#764=LINE('',#1840,#902);
#765=VECTOR('',#1238,1.);
#766=VECTOR('',#1241,1.);
#767=VECTOR('',#1244,1.);
#768=VECTOR('',#1247,1.);
#769=VECTOR('',#1250,1.);
#770=VECTOR('',#1251,1.);
#771=VECTOR('',#1252,1.);
#772=VECTOR('',#1253,1.);
#773=VECTOR('',#1256,1.);
#774=VECTOR('',#1257,1.);
#775=VECTOR('',#1258,1.);
#776=VECTOR('',#1259,1.);
#777=VECTOR('',#1260,1.);
#778=VECTOR('',#1261,1.);
#779=VECTOR('',#1262,1.);
#780=VECTOR('',#1263,1.);
#781=VECTOR('',#1264,1.);
#782=VECTOR('',#1265,1.);
#783=VECTOR('',#1266,1.);
#784=VECTOR('',#1267,1.);
#785=VECTOR('',#1268,1.);
#786=VECTOR('',#1269,1.);
#787=VECTOR('',#1270,1.);
#788=VECTOR('',#1271,1.);
#789=VECTOR('',#1274,1.);
#790=VECTOR('',#1275,1.);
#791=VECTOR('',#1276,1.);
#792=VECTOR('',#1279,1.);
#793=VECTOR('',#1280,1.);
#794=VECTOR('',#1281,1.);
#795=VECTOR('',#1284,1.);
#796=VECTOR('',#1285,1.);
#797=VECTOR('',#1286,1.);
#798=VECTOR('',#1289,1.);
#799=VECTOR('',#1290,1.);
#800=VECTOR('',#1291,1.);
#801=VECTOR('',#1294,1.);
#802=VECTOR('',#1295,1.);
#803=VECTOR('',#1296,1.);
#804=VECTOR('',#1297,1.);
#805=VECTOR('',#1298,1.);
#806=VECTOR('',#1299,1.);
#807=VECTOR('',#1300,1.);
#808=VECTOR('',#1301,1.);
#809=VECTOR('',#1302,1.);
#810=VECTOR('',#1303,1.);
#811=VECTOR('',#1304,1.);
#812=VECTOR('',#1305,1.);
#813=VECTOR('',#1306,1.);
#814=VECTOR('',#1307,1.);
#815=VECTOR('',#1308,1.);
#816=VECTOR('',#1309,1.);
#817=VECTOR('',#1312,1.);
#818=VECTOR('',#1313,1.);
#819=VECTOR('',#1316,1.);
#820=VECTOR('',#1317,1.);
#821=VECTOR('',#1324,1.);
#822=VECTOR('',#1325,1.);
#823=VECTOR('',#1326,1.);
#824=VECTOR('',#1329,1.);
#825=VECTOR('',#1330,1.);
#826=VECTOR('',#1333,1.);
#827=VECTOR('',#1334,1.);
#828=VECTOR('',#1337,1.);
#829=VECTOR('',#1338,1.);
#830=VECTOR('',#1341,1.);
#831=VECTOR('',#1342,1.);
#832=VECTOR('',#1345,1.);
#833=VECTOR('',#1346,1.);
#834=VECTOR('',#1349,1.);
#835=VECTOR('',#1350,1.);
#836=VECTOR('',#1353,1.);
#837=VECTOR('',#1354,1.);
#838=VECTOR('',#1357,1.);
#839=VECTOR('',#1358,1.);
#840=VECTOR('',#1361,1.);
#841=VECTOR('',#1362,1.);
#842=VECTOR('',#1365,1.);
#843=VECTOR('',#1366,1.);
#844=VECTOR('',#1369,1.);
#845=VECTOR('',#1382,1.);
#846=VECTOR('',#1383,1.);
#847=VECTOR('',#1384,1.);
#848=VECTOR('',#1387,1.);
#849=VECTOR('',#1388,1.);
#850=VECTOR('',#1391,1.);
#851=VECTOR('',#1392,1.);
#852=VECTOR('',#1395,1.);
#853=VECTOR('',#1396,1.);
#854=VECTOR('',#1399,1.);
#855=VECTOR('',#1400,1.);
#856=VECTOR('',#1403,1.);
#857=VECTOR('',#1404,1.);
#858=VECTOR('',#1407,1.);
#859=VECTOR('',#1408,1.);
#860=VECTOR('',#1411,1.);
#861=VECTOR('',#1412,1.);
#862=VECTOR('',#1415,1.);
#863=VECTOR('',#1416,1.);
#864=VECTOR('',#1419,1.);
#865=VECTOR('',#1420,1.);
#866=VECTOR('',#1423,1.);
#867=VECTOR('',#1424,1.);
#868=VECTOR('',#1427,1.);
#869=VECTOR('',#1428,1.);
#870=VECTOR('',#1429,1.);
#871=VECTOR('',#1430,1.);
#872=VECTOR('',#1433,1.);
#873=VECTOR('',#1434,1.);
#874=VECTOR('',#1435,1.);
#875=VECTOR('',#1438,1.);
#876=VECTOR('',#1439,1.);
#877=VECTOR('',#1440,1.);
#878=VECTOR('',#1443,1.);
#879=VECTOR('',#1444,1.);
#880=VECTOR('',#1445,1.);
#881=VECTOR('',#1448,1.);
#882=VECTOR('',#1449,1.);
#883=VECTOR('',#1450,1.);
#884=VECTOR('',#1451,1.);
#885=VECTOR('',#1454,1.);
#886=VECTOR('',#1455,1.);
#887=VECTOR('',#1456,1.);
#888=VECTOR('',#1459,1.);
#889=VECTOR('',#1460,1.);
#890=VECTOR('',#1461,1.);
#891=VECTOR('',#1464,1.);
#892=VECTOR('',#1465,1.);
#893=VECTOR('',#1466,1.);
#894=VECTOR('',#1469,1.);
#895=VECTOR('',#1470,1.);
#896=VECTOR('',#1471,1.);
#897=VECTOR('',#1474,1.);
#898=VECTOR('',#1475,1.);
#899=VECTOR('',#1476,1.);
#900=VECTOR('',#1485,1.);
#901=VECTOR('',#1486,1.);
#902=VECTOR('',#1489,1.);
#903=EDGE_LOOP('',(#43,#44,#45,#46,#47,#48,#49,#50));
#904=EDGE_LOOP('',(#51,#52,#53,#54));
#905=EDGE_LOOP('',(#55,#56,#57,#58,#59,#60,#61,#62));
#906=EDGE_LOOP('',(#63,#64,#65,#66,#67,#68,#69,#70,#71,#72,#73,#74));
#907=EDGE_LOOP('',(#75,#76,#77,#78));
#908=EDGE_LOOP('',(#79,#80,#81,#82));
#909=EDGE_LOOP('',(#83,#84,#85,#86));
#910=EDGE_LOOP('',(#87,#88,#89,#90));
#911=EDGE_LOOP('',(#91,#92,#93,#94,#95,#96,#97,#98,#99,#100,#101,#102));
#912=EDGE_LOOP('',(#103,#104,#105,#106));
#913=EDGE_LOOP('',(#107,#108,#109,#110));
#914=EDGE_LOOP('',(#111,#112,#113,#114));
#915=EDGE_LOOP('',(#115,#116,#117,#118));
#916=EDGE_LOOP('',(#119,#120,#121,#122));
#917=EDGE_LOOP('',(#123,#124,#125,#126));
#918=EDGE_LOOP('',(#127,#128,#129,#130));
#919=EDGE_LOOP('',(#131,#132,#133,#134));
#920=EDGE_LOOP('',(#135,#136,#137,#138));
#921=EDGE_LOOP('',(#139,#140,#141,#142));
#922=EDGE_LOOP('',(#143,#144,#145,#146));
#923=EDGE_LOOP('',(#147,#148,#149,#150));
#924=EDGE_LOOP('',(#151,#152,#153,#154));
#925=EDGE_LOOP('',(#155,#156,#157,#158));
#926=EDGE_LOOP('',(#159,#160,#161,#162));
#927=EDGE_LOOP('',(#163,#164,#165,#166));
#928=EDGE_LOOP('',(#167,#168,#169,#170));
#929=EDGE_LOOP('',(#171,#172,#173,#174,#175,#176,#177,#178,#179,#180,#181,
#182));
#930=EDGE_LOOP('',(#183,#184,#185,#186));
#931=EDGE_LOOP('',(#187,#188,#189,#190));
#932=EDGE_LOOP('',(#191,#192,#193,#194));
#933=EDGE_LOOP('',(#195,#196,#197,#198));
#934=EDGE_LOOP('',(#199,#200,#201,#202));
#935=EDGE_LOOP('',(#203,#204,#205,#206));
#936=EDGE_LOOP('',(#207,#208,#209,#210));
#937=EDGE_LOOP('',(#211,#212,#213,#214));
#938=EDGE_LOOP('',(#215,#216,#217,#218));
#939=EDGE_LOOP('',(#219,#220,#221,#222));
#940=EDGE_LOOP('',(#223,#224,#225,#226));
#941=EDGE_LOOP('',(#227,#228,#229,#230));
#942=EDGE_LOOP('',(#231,#232,#233,#234));
#943=EDGE_LOOP('',(#235,#236,#237,#238));
#944=EDGE_LOOP('',(#239,#240,#241,#242));
#945=EDGE_LOOP('',(#243,#244,#245,#246));
#946=EDGE_LOOP('',(#247,#248,#249,#250));
#947=EDGE_LOOP('',(#251,#252,#253,#254));
#948=EDGE_LOOP('',(#255,#256,#257,#258));
#949=EDGE_LOOP('',(#259,#260,#261,#262));
#950=EDGE_LOOP('',(#263,#264,#265,#266));
#951=EDGE_LOOP('',(#267,#268,#269,#270));
#952=EDGE_LOOP('',(#271,#272,#273,#274));
#953=EDGE_LOOP('',(#275,#276,#277,#278));
#954=EDGE_LOOP('',(#279,#280,#281,#282));
#955=EDGE_LOOP('',(#283,#284,#285,#286));
#956=EDGE_LOOP('',(#287,#288,#289,#290));
#957=EDGE_LOOP('',(#291,#292,#293,#294));
#958=EDGE_LOOP('',(#295,#296,#297,#298,#299,#300,#301));
#959=EDGE_LOOP('',(#302,#303,#304,#305,#306));
#960=EDGE_LOOP('',(#307,#308,#309,#310,#311,#312,#313,#314,#315,#316,#317,
#318));
#961=EDGE_LOOP('',(#319,#320,#321,#322,#323));
#962=EDGE_LOOP('',(#324,#325,#326,#327,#328,#329,#330));
#963=EDGE_LOOP('',(#331,#332,#333,#334));
#964=EDGE_LOOP('',(#335,#336,#337,#338));
#965=EDGE_LOOP('',(#339,#340,#341,#342));
#966=EDGE_LOOP('',(#343,#344,#345,#346));
#967=EDGE_LOOP('',(#347,#348,#349,#350));
#968=EDGE_LOOP('',(#351,#352,#353,#354));
#969=EDGE_LOOP('',(#355,#356,#357,#358));
#970=EDGE_LOOP('',(#359,#360,#361,#362));
#971=FACE_BOUND('',#903,.T.);
#972=FACE_BOUND('',#904,.T.);
#973=FACE_BOUND('',#905,.T.);
#974=FACE_BOUND('',#906,.T.);
#975=FACE_BOUND('',#907,.T.);
#976=FACE_BOUND('',#908,.T.);
#977=FACE_BOUND('',#909,.T.);
#978=FACE_BOUND('',#910,.T.);
#979=FACE_BOUND('',#911,.T.);
#980=FACE_BOUND('',#912,.T.);
#981=FACE_BOUND('',#913,.T.);
#982=FACE_BOUND('',#914,.T.);
#983=FACE_BOUND('',#915,.T.);
#984=FACE_BOUND('',#916,.T.);
#985=FACE_BOUND('',#917,.T.);
#986=FACE_BOUND('',#918,.T.);
#987=FACE_BOUND('',#919,.T.);
#988=FACE_BOUND('',#920,.T.);
#989=FACE_BOUND('',#921,.T.);
#990=FACE_BOUND('',#922,.T.);
#991=FACE_BOUND('',#923,.T.);
#992=FACE_BOUND('',#924,.T.);
#993=FACE_BOUND('',#925,.T.);
#994=FACE_BOUND('',#926,.T.);
#995=FACE_BOUND('',#927,.T.);
#996=FACE_BOUND('',#928,.T.);
#997=FACE_BOUND('',#929,.T.);
#998=FACE_BOUND('',#930,.T.);
#999=FACE_BOUND('',#931,.T.);
#1000=FACE_BOUND('',#932,.T.);
#1001=FACE_BOUND('',#933,.T.);
#1002=FACE_BOUND('',#934,.T.);
#1003=FACE_BOUND('',#935,.T.);
#1004=FACE_BOUND('',#936,.T.);
#1005=FACE_BOUND('',#937,.T.);
#1006=FACE_BOUND('',#938,.T.);
#1007=FACE_BOUND('',#939,.T.);
#1008=FACE_BOUND('',#940,.T.);
#1009=FACE_BOUND('',#941,.T.);
#1010=FACE_BOUND('',#942,.T.);
#1011=FACE_BOUND('',#943,.T.);
#1012=FACE_BOUND('',#944,.T.);
#1013=FACE_BOUND('',#945,.T.);
#1014=FACE_BOUND('',#946,.T.);
#1015=FACE_BOUND('',#947,.T.);
#1016=FACE_BOUND('',#948,.T.);
#1017=FACE_BOUND('',#949,.T.);
#1018=FACE_BOUND('',#950,.T.);
#1019=FACE_BOUND('',#951,.T.);
#1020=FACE_BOUND('',#952,.T.);
#1021=FACE_BOUND('',#953,.T.);
#1022=FACE_BOUND('',#954,.T.);
#1023=FACE_BOUND('',#955,.T.);
#1024=FACE_BOUND('',#956,.T.);
#1025=FACE_BOUND('',#957,.T.);
#1026=FACE_BOUND('',#958,.T.);
#1027=FACE_BOUND('',#959,.T.);
#1028=FACE_BOUND('',#960,.T.);
#1029=FACE_BOUND('',#961,.T.);
#1030=FACE_BOUND('',#962,.T.);
#1031=FACE_BOUND('',#963,.T.);
#1032=FACE_BOUND('',#964,.T.);
#1033=FACE_BOUND('',#965,.T.);
#1034=FACE_BOUND('',#966,.T.);
#1035=FACE_BOUND('',#967,.T.);
#1036=FACE_BOUND('',#968,.T.);
#1037=FACE_BOUND('',#969,.T.);
#1038=FACE_BOUND('',#970,.T.);
#1039=PLANE('',#1169);
#1040=PLANE('',#1174);
#1041=PLANE('',#1175);
#1042=PLANE('',#1176);
#1043=PLANE('',#1177);
#1044=PLANE('',#1178);
#1045=PLANE('',#1179);
#1046=PLANE('',#1180);
#1047=PLANE('',#1181);
#1048=PLANE('',#1182);
#1049=PLANE('',#1183);
#1050=PLANE('',#1184);
#1051=PLANE('',#1185);
#1052=PLANE('',#1186);
#1053=PLANE('',#1187);
#1054=PLANE('',#1188);
#1055=PLANE('',#1189);
#1056=PLANE('',#1190);
#1057=PLANE('',#1191);
#1058=PLANE('',#1192);
#1059=PLANE('',#1193);
#1060=PLANE('',#1194);
#1061=PLANE('',#1195);
#1062=PLANE('',#1196);
#1063=PLANE('',#1201);
#1064=PLANE('',#1202);
#1065=PLANE('',#1203);
#1066=PLANE('',#1204);
#1067=PLANE('',#1205);
#1068=PLANE('',#1206);
#1069=PLANE('',#1207);
#1070=PLANE('',#1208);
#1071=PLANE('',#1209);
#1072=PLANE('',#1210);
#1073=PLANE('',#1211);
#1074=PLANE('',#1212);
#1075=PLANE('',#1213);
#1076=PLANE('',#1214);
#1077=PLANE('',#1215);
#1078=PLANE('',#1216);
#1079=PLANE('',#1217);
#1080=PLANE('',#1218);
#1081=PLANE('',#1219);
#1082=PLANE('',#1220);
#1083=PLANE('',#1221);
#1084=PLANE('',#1225);
#1085=PLANE('',#1226);
#1086=PLANE('',#1227);
#1087=PLANE('',#1228);
#1088=PLANE('',#1229);
#1089=PLANE('',#1230);
#1090=PLANE('',#1231);
#1091=PLANE('',#1232);
#1092=PLANE('',#1233);
#1093=ADVANCED_FACE('',(#971,#972),#1039,.F.);
#1094=ADVANCED_FACE('',(#973,#974),#1040,.T.);
#1095=ADVANCED_FACE('',(#975),#1041,.F.);
#1096=ADVANCED_FACE('',(#976),#1042,.T.);
#1097=ADVANCED_FACE('',(#977),#1043,.F.);
#1098=ADVANCED_FACE('',(#978),#1044,.T.);
#1099=ADVANCED_FACE('',(#979,#980),#1045,.F.);
#1100=ADVANCED_FACE('',(#981),#1046,.T.);
#1101=ADVANCED_FACE('',(#982),#1047,.F.);
#1102=ADVANCED_FACE('',(#983),#1048,.T.);
#1103=ADVANCED_FACE('',(#984),#1049,.F.);
#1104=ADVANCED_FACE('',(#985),#1050,.T.);
#1105=ADVANCED_FACE('',(#986),#1051,.T.);
#1106=ADVANCED_FACE('',(#987),#1052,.T.);
#1107=ADVANCED_FACE('',(#988),#1053,.T.);
#1108=ADVANCED_FACE('',(#989),#1054,.F.);
#1109=ADVANCED_FACE('',(#990),#1055,.T.);
#1110=ADVANCED_FACE('',(#991),#1056,.F.);
#1111=ADVANCED_FACE('',(#992),#1057,.F.);
#1112=ADVANCED_FACE('',(#993),#1058,.F.);
#1113=ADVANCED_FACE('',(#994),#1059,.F.);
#1114=ADVANCED_FACE('',(#995),#1060,.T.);
#1115=ADVANCED_FACE('',(#996),#1061,.F.);
#1116=ADVANCED_FACE('',(#997),#1062,.F.);
#1117=ADVANCED_FACE('',(#998),#18,.T.);
#1118=ADVANCED_FACE('',(#999),#19,.T.);
#1119=ADVANCED_FACE('',(#1000),#20,.T.);
#1120=ADVANCED_FACE('',(#1001),#21,.T.);
#1121=ADVANCED_FACE('',(#1002),#1063,.F.);
#1122=ADVANCED_FACE('',(#1003),#1064,.F.);
#1123=ADVANCED_FACE('',(#1004),#1065,.F.);
#1124=ADVANCED_FACE('',(#1005),#1066,.F.);
#1125=ADVANCED_FACE('',(#1006),#1067,.F.);
#1126=ADVANCED_FACE('',(#1007),#1068,.F.);
#1127=ADVANCED_FACE('',(#1008),#1069,.F.);
#1128=ADVANCED_FACE('',(#1009),#1070,.F.);
#1129=ADVANCED_FACE('',(#1010),#1071,.F.);
#1130=ADVANCED_FACE('',(#1011),#1072,.F.);
#1131=ADVANCED_FACE('',(#1012),#1073,.F.);
#1132=ADVANCED_FACE('',(#1013),#1074,.T.);
#1133=ADVANCED_FACE('',(#1014),#1075,.F.);
#1134=ADVANCED_FACE('',(#1015),#1076,.F.);
#1135=ADVANCED_FACE('',(#1016),#1077,.F.);
#1136=ADVANCED_FACE('',(#1017),#1078,.F.);
#1137=ADVANCED_FACE('',(#1018),#1079,.F.);
#1138=ADVANCED_FACE('',(#1019),#1080,.F.);
#1139=ADVANCED_FACE('',(#1020),#1081,.F.);
#1140=ADVANCED_FACE('',(#1021),#1082,.F.);
#1141=ADVANCED_FACE('',(#1022),#1083,.F.);
#1142=ADVANCED_FACE('',(#1023),#22,.F.);
#1143=ADVANCED_FACE('',(#1024),#1084,.F.);
#1144=ADVANCED_FACE('',(#1025),#1085,.F.);
#1145=ADVANCED_FACE('',(#1026,#1027,#1028),#1086,.T.);
#1146=ADVANCED_FACE('',(#1029),#1087,.T.);
#1147=ADVANCED_FACE('',(#1030),#1088,.T.);
#1148=ADVANCED_FACE('',(#1031),#1089,.F.);
#1149=ADVANCED_FACE('',(#1032),#12,.T.);
#1150=ADVANCED_FACE('',(#1033),#13,.T.);
#1151=ADVANCED_FACE('',(#1034),#1090,.T.);
#1152=ADVANCED_FACE('',(#1035),#1091,.F.);
#1153=ADVANCED_FACE('',(#1036),#14,.T.);
#1154=ADVANCED_FACE('',(#1037),#15,.T.);
#1155=ADVANCED_FACE('',(#1038),#1092,.T.);
#1156=CLOSED_SHELL('',(#1093,#1094,#1095,#1096,#1097,#1098,#1099,#1100,
#1101,#1102,#1103,#1104,#1105,#1106,#1107,#1108,#1109,#1110,#1111,#1112,
#1113,#1114,#1115,#1116,#1117,#1118,#1119,#1120,#1121,#1122,#1123,#1124,
#1125,#1126,#1127,#1128,#1129,#1130,#1131,#1132,#1133,#1134,#1135,#1136,
#1137,#1138,#1139,#1140,#1141,#1142,#1143,#1144,#1145,#1146,#1147,#1148,
#1149,#1150,#1151,#1152,#1153,#1154,#1155));
#1157=STYLED_ITEM('',(#1158),#1165);
#1158=PRESENTATION_STYLE_ASSIGNMENT((#1159));
#1159=SURFACE_STYLE_USAGE(.BOTH.,#1160);
#1160=SURFACE_SIDE_STYLE('',(#1161));
#1161=SURFACE_STYLE_FILL_AREA(#1162);
#1162=FILL_AREA_STYLE('',(#1163));
#1163=FILL_AREA_STYLE_COLOUR('',#1164);
#1164=COLOUR_RGB('',0.615686274509804,0.811764705882353,0.929411764705882);
#1165=MANIFOLD_SOLID_BREP('Part 1',#1156);
#1166=SHAPE_DEFINITION_REPRESENTATION(#1934,#1167);
#1167=SHAPE_REPRESENTATION('Part 1',(#1168),#1929);
#1168=AXIS2_PLACEMENT_3D('',#1504,#1234,#1235);
#1169=AXIS2_PLACEMENT_3D('',#1505,#1236,#1237);
#1170=AXIS2_PLACEMENT_3D('',#1509,#1239,#1240);
#1171=AXIS2_PLACEMENT_3D('',#1513,#1242,#1243);
#1172=AXIS2_PLACEMENT_3D('',#1517,#1245,#1246);
#1173=AXIS2_PLACEMENT_3D('',#1521,#1248,#1249);
#1174=AXIS2_PLACEMENT_3D('',#1530,#1254,#1255);
#1175=AXIS2_PLACEMENT_3D('',#1587,#1272,#1273);
#1176=AXIS2_PLACEMENT_3D('',#1593,#1277,#1278);
#1177=AXIS2_PLACEMENT_3D('',#1599,#1282,#1283);
#1178=AXIS2_PLACEMENT_3D('',#1605,#1287,#1288);
#1179=AXIS2_PLACEMENT_3D('',#1611,#1292,#1293);
#1180=AXIS2_PLACEMENT_3D('',#1644,#1310,#1311);
#1181=AXIS2_PLACEMENT_3D('',#1647,#1314,#1315);
#1182=AXIS2_PLACEMENT_3D('',#1650,#1318,#1319);
#1183=AXIS2_PLACEMENT_3D('',#1651,#1320,#1321);
#1184=AXIS2_PLACEMENT_3D('',#1652,#1322,#1323);
#1185=AXIS2_PLACEMENT_3D('',#1658,#1327,#1328);
#1186=AXIS2_PLACEMENT_3D('',#1662,#1331,#1332);
#1187=AXIS2_PLACEMENT_3D('',#1666,#1335,#1336);
#1188=AXIS2_PLACEMENT_3D('',#1670,#1339,#1340);
#1189=AXIS2_PLACEMENT_3D('',#1674,#1343,#1344);
#1190=AXIS2_PLACEMENT_3D('',#1678,#1347,#1348);
#1191=AXIS2_PLACEMENT_3D('',#1682,#1351,#1352);
#1192=AXIS2_PLACEMENT_3D('',#1686,#1355,#1356);
#1193=AXIS2_PLACEMENT_3D('',#1690,#1359,#1360);
#1194=AXIS2_PLACEMENT_3D('',#1694,#1363,#1364);
#1195=AXIS2_PLACEMENT_3D('',#1698,#1367,#1368);
#1196=AXIS2_PLACEMENT_3D('',#1700,#1370,#1371);
#1197=AXIS2_PLACEMENT_3D('',#1701,#1372,#1373);
#1198=AXIS2_PLACEMENT_3D('',#1706,#1374,#1375);
#1199=AXIS2_PLACEMENT_3D('',#1711,#1376,#1377);
#1200=AXIS2_PLACEMENT_3D('',#1716,#1378,#1379);
#1201=AXIS2_PLACEMENT_3D('',#1721,#1380,#1381);
#1202=AXIS2_PLACEMENT_3D('',#1727,#1385,#1386);
#1203=AXIS2_PLACEMENT_3D('',#1731,#1389,#1390);
#1204=AXIS2_PLACEMENT_3D('',#1735,#1393,#1394);
#1205=AXIS2_PLACEMENT_3D('',#1739,#1397,#1398);
#1206=AXIS2_PLACEMENT_3D('',#1743,#1401,#1402);
#1207=AXIS2_PLACEMENT_3D('',#1747,#1405,#1406);
#1208=AXIS2_PLACEMENT_3D('',#1751,#1409,#1410);
#1209=AXIS2_PLACEMENT_3D('',#1755,#1413,#1414);
#1210=AXIS2_PLACEMENT_3D('',#1759,#1417,#1418);
#1211=AXIS2_PLACEMENT_3D('',#1763,#1421,#1422);
#1212=AXIS2_PLACEMENT_3D('',#1767,#1425,#1426);
#1213=AXIS2_PLACEMENT_3D('',#1776,#1431,#1432);
#1214=AXIS2_PLACEMENT_3D('',#1782,#1436,#1437);
#1215=AXIS2_PLACEMENT_3D('',#1788,#1441,#1442);
#1216=AXIS2_PLACEMENT_3D('',#1794,#1446,#1447);
#1217=AXIS2_PLACEMENT_3D('',#1803,#1452,#1453);
#1218=AXIS2_PLACEMENT_3D('',#1809,#1457,#1458);
#1219=AXIS2_PLACEMENT_3D('',#1815,#1462,#1463);
#1220=AXIS2_PLACEMENT_3D('',#1821,#1467,#1468);
#1221=AXIS2_PLACEMENT_3D('',#1827,#1472,#1473);
#1222=AXIS2_PLACEMENT_3D('',#1833,#1477,#1478);
#1223=AXIS2_PLACEMENT_3D('',#1834,#1479,#1480);
#1224=AXIS2_PLACEMENT_3D('',#1835,#1481,#1482);
#1225=AXIS2_PLACEMENT_3D('',#1836,#1483,#1484);
#1226=AXIS2_PLACEMENT_3D('',#1839,#1487,#1488);
#1227=AXIS2_PLACEMENT_3D('',#1841,#1490,#1491);
#1228=AXIS2_PLACEMENT_3D('',#1842,#1492,#1493);
#1229=AXIS2_PLACEMENT_3D('',#1843,#1494,#1495);
#1230=AXIS2_PLACEMENT_3D('',#1844,#1496,#1497);
#1231=AXIS2_PLACEMENT_3D('',#1885,#1498,#1499);
#1232=AXIS2_PLACEMENT_3D('',#1890,#1500,#1501);
#1233=AXIS2_PLACEMENT_3D('',#1927,#1502,#1503);
#1234=DIRECTION('',(0.,0.,1.));
#1235=DIRECTION('',(1.,0.,0.));
#1236=DIRECTION('',(0.,0.,1.));
#1237=DIRECTION('',(1.,0.,0.));
#1238=DIRECTION('',(-1.,-1.15648231731787E-16,0.));
#1239=DIRECTION('',(0.,0.,1.));
#1240=DIRECTION('',(0.707106781186547,0.707106781186548,0.));
#1241=DIRECTION('',(0.,1.,0.));
#1242=DIRECTION('',(0.,0.,1.));
#1243=DIRECTION('',(-0.707106781186548,0.707106781186548,0.));
#1244=DIRECTION('',(-1.,-1.15648231731787E-16,0.));
#1245=DIRECTION('',(0.,0.,1.));
#1246=DIRECTION('',(-0.707106781186547,-0.707106781186548,0.));
#1247=DIRECTION('',(0.,1.,0.));
#1248=DIRECTION('',(0.,0.,1.));
#1249=DIRECTION('',(0.707106781186548,-0.707106781186548,0.));
#1250=DIRECTION('',(-1.,0.,0.));
#1251=DIRECTION('',(-1.15648231731787E-16,1.,0.));
#1252=DIRECTION('',(-1.,0.,0.));
#1253=DIRECTION('',(-1.15648231731787E-16,1.,0.));
#1254=DIRECTION('',(0.,0.,1.));
#1255=DIRECTION('',(1.,0.,0.));
#1256=DIRECTION('',(-1.,0.,0.));
#1257=DIRECTION('',(1.15648231731787E-16,-1.,0.));
#1258=DIRECTION('',(1.,0.,0.));
#1259=DIRECTION('',(-1.15648231731787E-16,1.,0.));
#1260=DIRECTION('',(-1.,0.,0.));
#1261=DIRECTION('',(0.,1.,0.));
#1262=DIRECTION('',(1.,0.,0.));
#1263=DIRECTION('',(0.,1.,0.));
#1264=DIRECTION('',(0.587942493694739,0.808902728458751,0.));
#1265=DIRECTION('',(1.,0.,0.));
#1266=DIRECTION('',(0.51493799663446,-0.857227425845725,0.));
#1267=DIRECTION('',(0.,-1.,0.));
#1268=DIRECTION('',(-0.585312950237056,-0.810807468074138,0.));
#1269=DIRECTION('',(-1.,0.,0.));
#1270=DIRECTION('',(0.,-1.,0.));
#1271=DIRECTION('',(-0.574199291920619,-0.818715563036309,0.));
#1272=DIRECTION('',(0.,-0.98058067569092,-0.196116135138184));
#1273=DIRECTION('',(0.,0.196116135138184,-0.98058067569092));
#1274=DIRECTION('',(0.192450089729875,-0.192450089729875,0.962250448649376));
#1275=DIRECTION('',(1.,0.,0.));
#1276=DIRECTION('',(-0.192450089729875,-0.192450089729875,0.962250448649376));
#1277=DIRECTION('',(0.,-0.98058067569092,0.196116135138184));
#1278=DIRECTION('',(0.,-0.196116135138184,-0.98058067569092));
#1279=DIRECTION('',(-0.192450089729875,0.192450089729875,0.962250448649376));
#1280=DIRECTION('',(-1.,0.,0.));
#1281=DIRECTION('',(0.192450089729875,0.192450089729875,0.962250448649376));
#1282=DIRECTION('',(0.98058067569092,1.13402421214016E-16,-0.196116135138184));
#1283=DIRECTION('',(-0.196116135138184,0.,-0.98058067569092));
#1284=DIRECTION('',(0.192450089729875,0.192450089729875,0.962250448649376));
#1285=DIRECTION('',(-1.15648231731787E-16,1.,9.76224576251392E-34));
#1286=DIRECTION('',(0.192450089729875,-0.192450089729875,0.962250448649376));
#1287=DIRECTION('',(0.98058067569092,1.13402421214016E-16,0.196116135138184));
#1288=DIRECTION('',(0.196116135138184,0.,-0.98058067569092));
#1289=DIRECTION('',(-0.192450089729875,-0.192450089729875,0.962250448649376));
#1290=DIRECTION('',(1.15648231731787E-16,-1.,-1.85947538333599E-34));
#1291=DIRECTION('',(-0.192450089729875,0.192450089729875,0.962250448649376));
#1292=DIRECTION('',(0.,0.,1.));
#1293=DIRECTION('',(1.,0.,0.));
#1294=DIRECTION('',(-3.20537688857541E-16,1.,0.));
#1295=DIRECTION('',(1.,0.,0.));
#1296=DIRECTION('',(-3.20537688857541E-16,1.,0.));
#1297=DIRECTION('',(1.,0.,0.));
#1298=DIRECTION('',(0.,1.,0.));
#1299=DIRECTION('',(1.,0.,0.));
#1300=DIRECTION('',(-3.20537688857541E-16,1.,0.));
#1301=DIRECTION('',(1.,0.,0.));
#1302=DIRECTION('',(-3.20537688857541E-16,1.,0.));
#1303=DIRECTION('',(1.,0.,0.));
#1304=DIRECTION('',(0.,1.,0.));
#1305=DIRECTION('',(1.,0.,0.));
#1306=DIRECTION('',(1.,0.,0.));
#1307=DIRECTION('',(-1.15648231731787E-16,1.,0.));
#1308=DIRECTION('',(1.,0.,0.));
#1309=DIRECTION('',(-1.15648231731787E-16,1.,0.));
#1310=DIRECTION('',(0.,-0.98058067569092,-0.196116135138184));
#1311=DIRECTION('',(0.,0.196116135138184,-0.98058067569092));
#1312=DIRECTION('',(-0.192450089729875,-0.192450089729875,0.962250448649376));
#1313=DIRECTION('',(0.192450089729875,-0.192450089729875,0.962250448649376));
#1314=DIRECTION('',(0.,-0.98058067569092,0.196116135138184));
#1315=DIRECTION('',(0.,-0.196116135138184,-0.98058067569092));
#1316=DIRECTION('',(0.192450089729875,0.192450089729875,0.962250448649376));
#1317=DIRECTION('',(-0.192450089729875,0.192450089729875,0.962250448649376));
#1318=DIRECTION('',(0.98058067569092,1.13402421214016E-16,-0.196116135138184));
#1319=DIRECTION('',(-0.196116135138184,0.,-0.98058067569092));
#1320=DIRECTION('',(0.98058067569092,1.13402421214016E-16,0.196116135138184));
#1321=DIRECTION('',(0.196116135138184,0.,-0.98058067569092));
#1322=DIRECTION('',(0.,-1.,0.));
#1323=DIRECTION('',(0.,0.,-1.));
#1324=DIRECTION('',(0.,0.,-1.));
#1325=DIRECTION('',(-1.,0.,0.));
#1326=DIRECTION('',(0.,0.,-1.));
#1327=DIRECTION('',(1.,3.20537688857541E-16,0.));
#1328=DIRECTION('',(-3.20537688857541E-16,1.,0.));
#1329=DIRECTION('',(3.20537688857541E-16,-1.,0.));
#1330=DIRECTION('',(0.,0.,-1.));
#1331=DIRECTION('',(0.,-1.,0.));
#1332=DIRECTION('',(0.,0.,-1.));
#1333=DIRECTION('',(-1.,0.,0.));
#1334=DIRECTION('',(0.,0.,-1.));
#1335=DIRECTION('',(1.,0.,0.));
#1336=DIRECTION('',(0.,0.,-1.));
#1337=DIRECTION('',(0.,-1.,0.));
#1338=DIRECTION('',(0.,0.,-1.));
#1339=DIRECTION('',(0.,-1.,0.));
#1340=DIRECTION('',(0.,0.,-1.));
#1341=DIRECTION('',(0.,0.,-1.));
#1342=DIRECTION('',(-1.,0.,0.));
#1343=DIRECTION('',(1.,3.20537688857541E-16,0.));
#1344=DIRECTION('',(-3.20537688857541E-16,1.,0.));
#1345=DIRECTION('',(3.20537688857541E-16,-1.,0.));
#1346=DIRECTION('',(0.,0.,-1.));
#1347=DIRECTION('',(0.,-1.,0.));
#1348=DIRECTION('',(0.,0.,-1.));
#1349=DIRECTION('',(0.,0.,-1.));
#1350=DIRECTION('',(-1.,0.,0.));
#1351=DIRECTION('',(1.,3.20537688857541E-16,0.));
#1352=DIRECTION('',(-3.20537688857541E-16,1.,0.));
#1353=DIRECTION('',(0.,0.,-1.));
#1354=DIRECTION('',(3.20537688857541E-16,-1.,0.));
#1355=DIRECTION('',(0.,-1.,0.));
#1356=DIRECTION('',(0.,0.,-1.));
#1357=DIRECTION('',(0.,0.,-1.));
#1358=DIRECTION('',(-1.,0.,0.));
#1359=DIRECTION('',(1.,0.,0.));
#1360=DIRECTION('',(0.,0.,-1.));
#1361=DIRECTION('',(0.,0.,-1.));
#1362=DIRECTION('',(0.,-1.,0.));
#1363=DIRECTION('',(0.,-1.,0.));
#1364=DIRECTION('',(0.,0.,-1.));
#1365=DIRECTION('',(-1.,0.,0.));
#1366=DIRECTION('',(0.,0.,-1.));
#1367=DIRECTION('',(1.,3.20537688857541E-16,0.));
#1368=DIRECTION('',(-3.20537688857541E-16,1.,0.));
#1369=DIRECTION('',(3.20537688857541E-16,-1.,0.));
#1370=DIRECTION('',(0.,0.,1.));
#1371=DIRECTION('',(1.,0.,0.));
#1372=DIRECTION('',(0.192450089729875,0.192450089729875,-0.962250448649376));
#1373=DIRECTION('',(0.,0.98058067569092,0.196116135138184));
#1374=DIRECTION('',(-0.192450089729875,0.192450089729875,0.962250448649376));
#1375=DIRECTION('',(0.,-0.98058067569092,0.196116135138184));
#1376=DIRECTION('',(-0.192450089729875,-0.192450089729875,-0.962250448649376));
#1377=DIRECTION('',(0.,0.98058067569092,-0.196116135138184));
#1378=DIRECTION('',(0.192450089729875,-0.192450089729875,0.962250448649376));
#1379=DIRECTION('',(0.,-0.98058067569092,-0.196116135138184));
#1380=DIRECTION('',(0.,-1.,0.));
#1381=DIRECTION('',(0.,0.,-1.));
#1382=DIRECTION('',(0.,0.,-1.));
#1383=DIRECTION('',(-1.,0.,0.));
#1384=DIRECTION('',(0.,0.,-1.));
#1385=DIRECTION('',(0.818715563036309,-0.574199291920619,0.));
#1386=DIRECTION('',(0.574199291920619,0.818715563036309,0.));
#1387=DIRECTION('',(0.,0.,-1.));
#1388=DIRECTION('',(-0.574199291920619,-0.818715563036309,0.));
#1389=DIRECTION('',(1.,0.,0.));
#1390=DIRECTION('',(0.,0.,-1.));
#1391=DIRECTION('',(0.,0.,-1.));
#1392=DIRECTION('',(0.,-1.,0.));
#1393=DIRECTION('',(0.,-1.,0.));
#1394=DIRECTION('',(0.,0.,-1.));
#1395=DIRECTION('',(0.,0.,-1.));
#1396=DIRECTION('',(-1.,0.,0.));
#1397=DIRECTION('',(0.810807468074138,-0.585312950237056,0.));
#1398=DIRECTION('',(0.585312950237056,0.810807468074138,0.));
#1399=DIRECTION('',(0.,0.,-1.));
#1400=DIRECTION('',(-0.585312950237056,-0.810807468074138,0.));
#1401=DIRECTION('',(1.,0.,0.));
#1402=DIRECTION('',(0.,0.,-1.));
#1403=DIRECTION('',(0.,0.,-1.));
#1404=DIRECTION('',(0.,-1.,0.));
#1405=DIRECTION('',(0.857227425845725,0.51493799663446,0.));
#1406=DIRECTION('',(-0.51493799663446,0.857227425845725,0.));
#1407=DIRECTION('',(0.,0.,-1.));
#1408=DIRECTION('',(0.51493799663446,-0.857227425845725,0.));
#1409=DIRECTION('',(0.,1.,0.));
#1410=DIRECTION('',(0.,0.,1.));
#1411=DIRECTION('',(0.,0.,-1.));
#1412=DIRECTION('',(1.,0.,0.));
#1413=DIRECTION('',(-0.808902728458751,0.587942493694739,0.));
#1414=DIRECTION('',(-0.587942493694739,-0.808902728458751,0.));
#1415=DIRECTION('',(0.,0.,-1.));
#1416=DIRECTION('',(0.587942493694739,0.808902728458751,0.));
#1417=DIRECTION('',(-1.,0.,0.));
#1418=DIRECTION('',(0.,0.,1.));
#1419=DIRECTION('',(0.,0.,-1.));
#1420=DIRECTION('',(0.,1.,0.));
#1421=DIRECTION('',(0.,1.,0.));
#1422=DIRECTION('',(0.,0.,1.));
#1423=DIRECTION('',(0.,0.,-1.));
#1424=DIRECTION('',(1.,0.,0.));
#1425=DIRECTION('',(1.,0.,0.));
#1426=DIRECTION('',(0.,0.,-1.));
#1427=DIRECTION('',(0.,-1.,0.));
#1428=DIRECTION('',(0.,0.,-1.));
#1429=DIRECTION('',(0.,-1.,0.));
#1430=DIRECTION('',(0.,0.,-1.));
#1431=DIRECTION('',(0.,1.,0.));
#1432=DIRECTION('',(0.,0.,1.));
#1433=DIRECTION('',(1.,0.,0.));
#1434=DIRECTION('',(0.,0.,-1.));
#1435=DIRECTION('',(1.,0.,0.));
#1436=DIRECTION('',(1.,0.,0.));
#1437=DIRECTION('',(0.,0.,-1.));
#1438=DIRECTION('',(0.,-1.,0.));
#1439=DIRECTION('',(0.,0.,-1.));
#1440=DIRECTION('',(0.,-1.,0.));
#1441=DIRECTION('',(0.,-1.,0.));
#1442=DIRECTION('',(0.,0.,-1.));
#1443=DIRECTION('',(-1.,0.,0.));
#1444=DIRECTION('',(0.,0.,-1.));
#1445=DIRECTION('',(-1.,0.,0.));
#1446=DIRECTION('',(-0.0980404148643393,0.995182434055801,0.));
#1447=DIRECTION('',(-0.995182434055801,-0.0980404148643393,0.));
#1448=DIRECTION('',(0.995182434055801,0.0980404148643393,0.));
#1449=DIRECTION('',(0.,0.,-1.));
#1450=DIRECTION('',(0.995182434055801,0.0980404148643393,0.));
#1451=DIRECTION('',(0.,0.,-1.));
#1452=DIRECTION('',(1.,0.,0.));
#1453=DIRECTION('',(0.,0.,-1.));
#1454=DIRECTION('',(0.,-1.,0.));
#1455=DIRECTION('',(0.,0.,-1.));
#1456=DIRECTION('',(0.,-1.,0.));
#1457=DIRECTION('',(0.696082887166709,0.717961429460983,0.));
#1458=DIRECTION('',(-0.717961429460983,0.696082887166709,0.));
#1459=DIRECTION('',(0.717961429460983,-0.696082887166709,0.));
#1460=DIRECTION('',(0.,0.,-1.));
#1461=DIRECTION('',(0.717961429460983,-0.696082887166709,0.));
#1462=DIRECTION('',(0.,1.,0.));
#1463=DIRECTION('',(0.,0.,1.));
#1464=DIRECTION('',(1.,0.,0.));
#1465=DIRECTION('',(0.,0.,-1.));
#1466=DIRECTION('',(1.,0.,0.));
#1467=DIRECTION('',(1.,0.,0.));
#1468=DIRECTION('',(0.,0.,-1.));
#1469=DIRECTION('',(0.,-1.,0.));
#1470=DIRECTION('',(0.,0.,-1.));
#1471=DIRECTION('',(0.,-1.,0.));
#1472=DIRECTION('',(0.,-1.,0.));
#1473=DIRECTION('',(0.,0.,-1.));
#1474=DIRECTION('',(-1.,0.,0.));
#1475=DIRECTION('',(0.,0.,-1.));
#1476=DIRECTION('',(-1.,0.,0.));
#1477=DIRECTION('',(0.,0.,-1.));
#1478=DIRECTION('',(-1.,0.,0.));
#1479=DIRECTION('',(0.,0.,-1.));
#1480=DIRECTION('',(1.,0.,0.));
#1481=DIRECTION('',(0.,0.,-1.));
#1482=DIRECTION('',(1.,0.,0.));
#1483=DIRECTION('',(-1.,0.,0.));
#1484=DIRECTION('',(0.,0.,1.));
#1485=DIRECTION('',(0.,1.,0.));
#1486=DIRECTION('',(0.,1.,0.));
#1487=DIRECTION('',(-1.,0.,0.));
#1488=DIRECTION('',(0.,0.,1.));
#1489=DIRECTION('',(0.,1.,0.));
#1490=DIRECTION('',(0.,0.,1.));
#1491=DIRECTION('',(1.,0.,0.));
#1492=DIRECTION('',(0.,0.,1.));
#1493=DIRECTION('',(1.,0.,0.));
#1494=DIRECTION('',(0.,0.,1.));
#1495=DIRECTION('',(1.,0.,0.));
#1496=DIRECTION('',(0.,0.63398890560554,-0.773342141337901));
#1497=DIRECTION('',(1.,0.,0.));
#1498=DIRECTION('',(-0.633988905605539,-7.33196958708516E-17,0.773342141337901));
#1499=DIRECTION('',(1.15648231731787E-16,-1.,0.));
#1500=DIRECTION('',(-0.633988905605538,-7.33196958708514E-17,-0.773342141337902));
#1501=DIRECTION('',(-1.15648231731787E-16,1.,0.));
#1502=DIRECTION('',(0.,0.63398890560554,0.773342141337901));
#1503=DIRECTION('',(-1.,0.,0.));
#1504=CARTESIAN_POINT('',(0.,0.,0.));
#1505=CARTESIAN_POINT('',(0.,0.,0.));
#1506=CARTESIAN_POINT('',(0.,0.009,0.));
#1507=CARTESIAN_POINT('',(0.0130388386486182,0.009,0.));
#1508=CARTESIAN_POINT('',(-0.0130388386486181,0.009,0.));
#1509=CARTESIAN_POINT('',(0.0129603921945629,0.00696039219456289,0.));
#1510=CARTESIAN_POINT('',(0.015,0.00703883864861817,0.));
#1511=CARTESIAN_POINT('',(0.015,1.7347234759768E-18,0.));
#1512=CARTESIAN_POINT('',(0.015,-0.00703883864861816,0.));
#1513=CARTESIAN_POINT('',(0.0129603921945629,-0.00696039219456289,0.));
#1514=CARTESIAN_POINT('',(0.0130388386486182,-0.009,0.));
#1515=CARTESIAN_POINT('',(0.,-0.009,0.));
#1516=CARTESIAN_POINT('',(-0.0130388386486182,-0.009,0.));
#1517=CARTESIAN_POINT('',(-0.0129603921945629,-0.00696039219456289,0.));
#1518=CARTESIAN_POINT('',(-0.015,-0.00703883864861816,0.));
#1519=CARTESIAN_POINT('',(-0.015,-3.46944695195361E-18,0.));
#1520=CARTESIAN_POINT('',(-0.015,0.00703883864861816,0.));
#1521=CARTESIAN_POINT('',(-0.0129603921945629,0.00696039219456289,0.));
#1522=CARTESIAN_POINT('',(-0.045,-0.00798019609728144,0.));
#1523=CARTESIAN_POINT('',(0.0139801960972814,-0.00798019609728144,0.));
#1524=CARTESIAN_POINT('',(-0.0139801960972814,-0.00798019609728144,0.));
#1525=CARTESIAN_POINT('',(0.0139801960972814,1.61678495791423E-18,0.));
#1526=CARTESIAN_POINT('',(0.0139801960972814,0.00798019609728145,0.));
#1527=CARTESIAN_POINT('',(-0.045,0.00798019609728145,0.));
#1528=CARTESIAN_POINT('',(-0.0139801960972814,0.00798019609728145,0.));
#1529=CARTESIAN_POINT('',(-0.0139801960972814,-1.61678495791423E-18,0.));
#1530=CARTESIAN_POINT('',(0.,0.,0.01));
#1531=CARTESIAN_POINT('',(0.0125,0.00513689671618726,0.01));
#1532=CARTESIAN_POINT('',(0.0125013635756142,0.00549799592837238,0.01));
#1533=CARTESIAN_POINT('',(0.0122077147861902,0.00620808257055694,0.01));
#1534=CARTESIAN_POINT('',(0.0114987342852743,0.00650136636378275,0.01));
#1535=CARTESIAN_POINT('',(0.0111368967161873,0.0065,0.01));
#1536=CARTESIAN_POINT('',(0.0125,0.00513689671618726,0.01));
#1537=CARTESIAN_POINT('',(0.0111368967161873,0.0065,0.01));
#1538=CARTESIAN_POINT('',(-0.0110388386486181,0.0065,0.01));
#1539=CARTESIAN_POINT('',(-0.0111368967161872,0.0065,0.01));
#1540=CARTESIAN_POINT('',(-0.0111368967161872,0.0065,0.01));
#1541=CARTESIAN_POINT('',(-0.0114979959283725,0.0065013635756142,0.01));
#1542=CARTESIAN_POINT('',(-0.0122080825705569,0.00620771478619067,0.01));
#1543=CARTESIAN_POINT('',(-0.0125013663637827,0.00549873428527346,0.01));
#1544=CARTESIAN_POINT('',(-0.0125,0.00513689671618726,0.01));
#1545=CARTESIAN_POINT('',(-0.0125,0.00513689671618726,0.01));
#1546=CARTESIAN_POINT('',(-0.0125,-0.00503883864861816,0.01));
#1547=CARTESIAN_POINT('',(-0.0125,-0.00513689671618725,0.01));
#1548=CARTESIAN_POINT('',(-0.0125,-0.00513689671618725,0.01));
#1549=CARTESIAN_POINT('',(-0.0125013635756142,-0.00549799592837208,0.01));
#1550=CARTESIAN_POINT('',(-0.0122077147861896,-0.00620808257055709,0.01));
#1551=CARTESIAN_POINT('',(-0.0114987342852755,-0.00650136636378275,0.01));
#1552=CARTESIAN_POINT('',(-0.0111368967161872,-0.0065,0.01));
#1553=CARTESIAN_POINT('',(-0.0111368967161872,-0.0065,0.01));
#1554=CARTESIAN_POINT('',(0.,-0.0065,0.01));
#1555=CARTESIAN_POINT('',(0.0111368967161872,-0.0065,0.01));
#1556=CARTESIAN_POINT('',(0.0111368967161872,-0.0065,0.01));
#1557=CARTESIAN_POINT('',(0.0114979959283713,-0.00650136357561419,0.01));
#1558=CARTESIAN_POINT('',(0.0122080825705575,-0.00620771478619011,0.01));
#1559=CARTESIAN_POINT('',(0.0125013663637827,-0.0054987342852746,0.01));
#1560=CARTESIAN_POINT('',(0.0125,-0.00513689671618725,0.01));
#1561=CARTESIAN_POINT('',(0.0125,-0.00513689671618725,0.01));
#1562=CARTESIAN_POINT('',(0.0125,1.44560289664734E-18,0.01));
#1563=CARTESIAN_POINT('',(0.00179675734372149,0.00407052997275505,0.01));
#1564=CARTESIAN_POINT('',(0.00495907658029508,0.00407052997275505,0.01));
#1565=CARTESIAN_POINT('',(-0.00136556189285211,0.00407052997275505,0.01));
#1566=CARTESIAN_POINT('',(0.00495907658029508,0.000598557363346944,0.01));
#1567=CARTESIAN_POINT('',(0.00495907658029508,-0.00287341524606116,0.01));
#1568=CARTESIAN_POINT('',(0.00416939414979253,-0.00287341524606116,0.01));
#1569=CARTESIAN_POINT('',(0.00337971171928997,-0.00287341524606116,0.01));
#1570=CARTESIAN_POINT('',(0.00337971171928997,-0.00350794749724054,0.01));
#1571=CARTESIAN_POINT('',(0.00337971171928997,-0.00414247974841991,0.01));
#1572=CARTESIAN_POINT('',(0.00308193273067406,-0.00455216987790077,0.01));
#1573=CARTESIAN_POINT('',(0.00278415374205815,-0.00496186000738163,0.01));
#1574=CARTESIAN_POINT('',(-0.000254521085795701,-0.00496186000738163,0.01));
#1575=CARTESIAN_POINT('',(-0.00329319591364956,-0.00496186000738163,0.01));
#1576=CARTESIAN_POINT('',(-0.0035392974826791,-0.00455216987790077,0.01));
#1577=CARTESIAN_POINT('',(-0.00378539905170864,-0.00414247974841991,0.01));
#1578=CARTESIAN_POINT('',(-0.00378539905170864,-0.00126741870873238,0.01));
#1579=CARTESIAN_POINT('',(-0.00378539905170864,0.00160764233095514,0.01));
#1580=CARTESIAN_POINT('',(-0.00357891861482716,0.0018936703099481,0.01));
#1581=CARTESIAN_POINT('',(-0.00337243817794568,0.00217969828894106,0.01));
#1582=CARTESIAN_POINT('',(-0.00254644899351397,0.00217969828894106,0.01));
#1583=CARTESIAN_POINT('',(-0.00172045980908226,0.00217969828894106,0.01));
#1584=CARTESIAN_POINT('',(-0.00172045980908226,0.00287210054184232,0.01));
#1585=CARTESIAN_POINT('',(-0.00172045980908226,0.00356450279474357,0.01));
#1586=CARTESIAN_POINT('',(-0.00154301085096718,0.00381751638374931,0.01));
#1587=CARTESIAN_POINT('',(-0.045,0.008,0.005));
#1588=CARTESIAN_POINT('',(-0.013259622402373,0.00922078375375489,-0.00110391876877442));
#1589=CARTESIAN_POINT('',(-0.0111368967161872,0.00709805806756909,0.00950970966215456));
#1590=CARTESIAN_POINT('',(0.0110388386486182,0.0070980580675691,0.00950970966215454));
#1591=CARTESIAN_POINT('',(0.0111368967161873,0.0070980580675691,0.00950970966215454));
#1592=CARTESIAN_POINT('',(0.0131114742542249,0.00907263560560674,-0.000363178028033672));
#1593=CARTESIAN_POINT('',(-0.045,-0.008,0.005));
#1594=CARTESIAN_POINT('',(0.0099262890690397,-0.00588745042042155,0.0155627478978923));
#1595=CARTESIAN_POINT('',(0.0111368967161872,-0.00709805806756909,0.00950970966215454));
#1596=CARTESIAN_POINT('',(-0.045,-0.00709805806756909,0.00950970966215454));
#1597=CARTESIAN_POINT('',(-0.0111368967161872,-0.00709805806756909,0.00950970966215454));
#1598=CARTESIAN_POINT('',(-0.0131114742542249,-0.00907263560560674,-0.000363178028033673));
#1599=CARTESIAN_POINT('',(-0.014,-0.0164,0.005));
#1600=CARTESIAN_POINT('',(-0.0130726356056067,-0.00511147425422489,0.00963682197196633));
#1601=CARTESIAN_POINT('',(-0.0130980580675691,-0.00513689671618725,0.00950970966215454));
#1602=CARTESIAN_POINT('',(-0.0130980580675691,0.00503883864861816,0.00950970966215454));
#1603=CARTESIAN_POINT('',(-0.0130980580675691,0.00513689671618725,0.00950970966215454));
#1604=CARTESIAN_POINT('',(-0.013168931901903,0.00520777055052119,0.00915534049048485));
#1605=CARTESIAN_POINT('',(0.014,-0.0164,0.005));
#1606=CARTESIAN_POINT('',(0.0130726356056067,0.0051114742542249,0.00963682197196633));
#1607=CARTESIAN_POINT('',(0.0130980580675691,0.00513689671618726,0.00950970966215454));
#1608=CARTESIAN_POINT('',(0.0130980580675691,-0.0164,0.00950970966215454));
#1609=CARTESIAN_POINT('',(0.0130980580675691,-0.00513689671618725,0.00950970966215454));
#1610=CARTESIAN_POINT('',(0.0143837467167178,-0.00642258536533601,0.00308126641641077));
#1611=CARTESIAN_POINT('',(0.,0.,0.009));
#1612=CARTESIAN_POINT('',(-0.00155,-4.96833417729188E-19,0.009));
#1613=CARTESIAN_POINT('',(-0.00155,-0.00297797933462966,0.009));
#1614=CARTESIAN_POINT('',(-0.00155,-0.001625,0.009));
#1615=CARTESIAN_POINT('',(0.,-0.00297797933462966,0.009));
#1616=CARTESIAN_POINT('',(0.00155,-0.00297797933462966,0.009));
#1617=CARTESIAN_POINT('',(0.00155,4.96833417729188E-19,0.009));
#1618=CARTESIAN_POINT('',(0.00155,-0.001625,0.009));
#1619=CARTESIAN_POINT('',(0.,-0.001625,0.009));
#1620=CARTESIAN_POINT('',(0.003,-0.001625,0.009));
#1621=CARTESIAN_POINT('',(0.003,0.,0.009));
#1622=CARTESIAN_POINT('',(0.003,0.001625,0.009));
#1623=CARTESIAN_POINT('',(0.,0.001625,0.009));
#1624=CARTESIAN_POINT('',(0.00155,0.001625,0.009));
#1625=CARTESIAN_POINT('',(0.00155,4.96833417729188E-19,0.009));
#1626=CARTESIAN_POINT('',(0.00155,0.00297797933462966,0.009));
#1627=CARTESIAN_POINT('',(0.,0.00297797933462966,0.009));
#1628=CARTESIAN_POINT('',(-0.00155,0.00297797933462966,0.009));
#1629=CARTESIAN_POINT('',(-0.00155,-4.96833417729188E-19,0.009));
#1630=CARTESIAN_POINT('',(-0.00155,0.001625,0.009));
#1631=CARTESIAN_POINT('',(0.,0.001625,0.009));
#1632=CARTESIAN_POINT('',(-0.003,0.001625,0.009));
#1633=CARTESIAN_POINT('',(-0.003,0.,0.009));
#1634=CARTESIAN_POINT('',(-0.003,-0.001625,0.009));
#1635=CARTESIAN_POINT('',(0.,-0.001625,0.009));
#1636=CARTESIAN_POINT('',(0.,-0.00618019609728144,0.009));
#1637=CARTESIAN_POINT('',(-0.0121801960972814,-0.00618019609728144,0.009));
#1638=CARTESIAN_POINT('',(0.0121801960972814,-0.00618019609728144,0.009));
#1639=CARTESIAN_POINT('',(-0.0121801960972814,-1.40861814079701E-18,0.009));
#1640=CARTESIAN_POINT('',(-0.0121801960972814,0.00618019609728145,0.009));
#1641=CARTESIAN_POINT('',(0.,0.00618019609728145,0.009));
#1642=CARTESIAN_POINT('',(0.0121801960972814,0.00618019609728145,0.009));
#1643=CARTESIAN_POINT('',(0.0121801960972814,1.40861814079701E-18,0.009));
#1644=CARTESIAN_POINT('',(-0.045,0.00701941932430908,0.00480388386486182));
#1645=CARTESIAN_POINT('',(0.0108705519419273,0.00487055194192726,0.0155482207767709));
#1646=CARTESIAN_POINT('',(-0.0142038852752606,0.0082038852752606,-0.00111844588989577));
#1647=CARTESIAN_POINT('',(-0.045,-0.00701941932430908,0.00480388386486182));
#1648=CARTESIAN_POINT('',(-0.0142038852752606,-0.0082038852752606,-0.00111844588989576));
#1649=CARTESIAN_POINT('',(0.0108705519419273,-0.00487055194192726,0.0155482207767709));
#1650=CARTESIAN_POINT('',(-0.0130194193243091,-0.0164,0.00480388386486182));
#1651=CARTESIAN_POINT('',(0.0130194193243091,-0.0164,0.00480388386486182));
#1652=CARTESIAN_POINT('',(8.67361737988404E-19,-0.00297797933462966,0.0097536));
#1653=CARTESIAN_POINT('',(-0.00155,-0.00297797933462966,0.0097536));
#1654=CARTESIAN_POINT('',(-0.00155,-0.00297797933462966,0.));
#1655=CARTESIAN_POINT('',(8.67361737988404E-19,-0.00297797933462966,0.));
#1656=CARTESIAN_POINT('',(0.00155,-0.00297797933462966,0.));
#1657=CARTESIAN_POINT('',(0.00155,-0.00297797933462966,0.0097536));
#1658=CARTESIAN_POINT('',(0.00155,-0.00230148966731482,0.0097536));
#1659=CARTESIAN_POINT('',(0.00155,-0.00230148966731482,0.));
#1660=CARTESIAN_POINT('',(0.00155,-0.001625,0.));
#1661=CARTESIAN_POINT('',(0.00155,-0.001625,0.0097536));
#1662=CARTESIAN_POINT('',(0.002275,-0.001625,0.0097536));
#1663=CARTESIAN_POINT('',(0.002275,-0.001625,0.));
#1664=CARTESIAN_POINT('',(0.003,-0.001625,0.));
#1665=CARTESIAN_POINT('',(0.003,-0.001625,0.0097536));
#1666=CARTESIAN_POINT('',(0.003,0.,0.0097536));
#1667=CARTESIAN_POINT('',(0.003,0.,0.));
#1668=CARTESIAN_POINT('',(0.003,0.001625,0.));
#1669=CARTESIAN_POINT('',(0.003,0.001625,0.0097536));
#1670=CARTESIAN_POINT('',(0.002275,0.001625,0.0097536));
#1671=CARTESIAN_POINT('',(0.00155,0.001625,0.0097536));
#1672=CARTESIAN_POINT('',(0.00155,0.001625,0.));
#1673=CARTESIAN_POINT('',(0.002275,0.001625,0.));
#1674=CARTESIAN_POINT('',(0.00155,0.00230148966731482,0.0097536));
#1675=CARTESIAN_POINT('',(0.00155,0.00230148966731482,0.));
#1676=CARTESIAN_POINT('',(0.00155,0.00297797933462966,0.));
#1677=CARTESIAN_POINT('',(0.00155,0.00297797933462966,0.0097536));
#1678=CARTESIAN_POINT('',(-8.67361737988404E-19,0.00297797933462966,0.0097536));
#1679=CARTESIAN_POINT('',(-0.00155,0.00297797933462966,0.0097536));
#1680=CARTESIAN_POINT('',(-0.00155,0.00297797933462966,0.));
#1681=CARTESIAN_POINT('',(-8.67361737988404E-19,0.00297797933462966,0.));
#1682=CARTESIAN_POINT('',(-0.00155,0.00230148966731482,0.0097536));
#1683=CARTESIAN_POINT('',(-0.00155,0.001625,0.0097536));
#1684=CARTESIAN_POINT('',(-0.00155,0.001625,0.));
#1685=CARTESIAN_POINT('',(-0.00155,0.00230148966731482,0.));
#1686=CARTESIAN_POINT('',(-0.002275,0.001625,0.0097536));
#1687=CARTESIAN_POINT('',(-0.003,0.001625,0.0097536));
#1688=CARTESIAN_POINT('',(-0.003,0.001625,0.));
#1689=CARTESIAN_POINT('',(-0.002275,0.001625,0.));
#1690=CARTESIAN_POINT('',(-0.003,0.,0.0097536));
#1691=CARTESIAN_POINT('',(-0.003,-0.001625,0.0097536));
#1692=CARTESIAN_POINT('',(-0.003,-0.001625,0.));
#1693=CARTESIAN_POINT('',(-0.003,0.,0.));
#1694=CARTESIAN_POINT('',(-0.002275,-0.001625,0.0097536));
#1695=CARTESIAN_POINT('',(-0.002275,-0.001625,0.));
#1696=CARTESIAN_POINT('',(-0.00155,-0.001625,0.));
#1697=CARTESIAN_POINT('',(-0.00155,-0.001625,0.0097536));
#1698=CARTESIAN_POINT('',(-0.00155,-0.00230148966731482,0.0097536));
#1699=CARTESIAN_POINT('',(-0.00155,-0.00230148966731482,0.));
#1700=CARTESIAN_POINT('',(0.,-3.46944695195361E-18,0.));
#1701=CARTESIAN_POINT('',(0.0112077705505212,0.0052077705505212,0.00876310822020848));
#1702=CARTESIAN_POINT('',(0.0111368967161873,0.0070980580675691,0.00950970966215454));
#1703=CARTESIAN_POINT('',(0.0122154077632577,0.00708584907248818,0.00957075463755915));
#1704=CARTESIAN_POINT('',(0.0130858465437773,0.00621563114303665,0.00957076728111356));
#1705=CARTESIAN_POINT('',(0.0130980580675691,0.00513689671618726,0.00950970966215454));
#1706=CARTESIAN_POINT('',(0.00992628906903972,-0.0039262890690397,0.0151705156276159));
#1707=CARTESIAN_POINT('',(0.0130980580675691,-0.00513689671618725,0.00950970966215456));
#1708=CARTESIAN_POINT('',(0.0130858490724877,-0.00621540776329818,0.00957075463756144));
#1709=CARTESIAN_POINT('',(0.0122156311429962,-0.00708584654377774,0.00957076728111128));
#1710=CARTESIAN_POINT('',(0.0111368967161873,-0.00709805806756909,0.00950970966215456));
#1711=CARTESIAN_POINT('',(-0.012422585365336,-0.00642258536533601,0.0026890341461344));
#1712=CARTESIAN_POINT('',(-0.0111368967161873,-0.0070980580675691,0.00950970966215453));
#1713=CARTESIAN_POINT('',(-0.012215407763278,-0.00708584907248794,0.0095707546375603));
#1714=CARTESIAN_POINT('',(-0.0130858465437775,-0.0062156311430164,0.00957076728111241));
#1715=CARTESIAN_POINT('',(-0.0130980580675691,-0.00513689671618726,0.00950970966215453));
#1716=CARTESIAN_POINT('',(-0.013259622402373,0.00725962240237305,-0.00149615103905079));
#1717=CARTESIAN_POINT('',(-0.0130980580675691,0.00513689671618726,0.00950970966215454));
#1718=CARTESIAN_POINT('',(-0.0130858490724875,0.00621540776331852,0.00957075463756259));
#1719=CARTESIAN_POINT('',(-0.012215631142976,0.00708584654377798,0.00957076728111012));
#1720=CARTESIAN_POINT('',(-0.0111368967161872,0.0070980580675691,0.00950970966215454));
#1721=CARTESIAN_POINT('',(0.00179675734372149,0.00407052997275505,0.0105));
#1722=CARTESIAN_POINT('',(-0.00136556189285211,0.00407052997275505,0.0105));
#1723=CARTESIAN_POINT('',(-0.00136556189285211,0.00407052997275505,0.0105));
#1724=CARTESIAN_POINT('',(0.00179675734372149,0.00407052997275505,0.0105));
#1725=CARTESIAN_POINT('',(0.00495907658029508,0.00407052997275505,0.0105));
#1726=CARTESIAN_POINT('',(0.00495907658029508,0.00407052997275505,0.0105));
#1727=CARTESIAN_POINT('',(-0.00154301085096718,0.00381751638374931,0.0105));
#1728=CARTESIAN_POINT('',(-0.00172045980908226,0.00356450279474357,0.0105));
#1729=CARTESIAN_POINT('',(-0.00172045980908226,0.00356450279474357,0.0105));
#1730=CARTESIAN_POINT('',(-0.00154301085096718,0.00381751638374931,0.0105));
#1731=CARTESIAN_POINT('',(-0.00172045980908226,0.00287210054184232,0.0105));
#1732=CARTESIAN_POINT('',(-0.00172045980908226,0.00217969828894106,0.0105));
#1733=CARTESIAN_POINT('',(-0.00172045980908226,0.00217969828894106,0.0105));
#1734=CARTESIAN_POINT('',(-0.00172045980908226,0.00287210054184232,0.0105));
#1735=CARTESIAN_POINT('',(-0.00254644899351397,0.00217969828894106,0.0105));
#1736=CARTESIAN_POINT('',(-0.00337243817794568,0.00217969828894106,0.0105));
#1737=CARTESIAN_POINT('',(-0.00337243817794568,0.00217969828894106,0.0105));
#1738=CARTESIAN_POINT('',(-0.00254644899351397,0.00217969828894106,0.0105));
#1739=CARTESIAN_POINT('',(-0.00357891861482716,0.0018936703099481,0.0105));
#1740=CARTESIAN_POINT('',(-0.00378539905170864,0.00160764233095514,0.0105));
#1741=CARTESIAN_POINT('',(-0.00378539905170864,0.00160764233095514,0.0105));
#1742=CARTESIAN_POINT('',(-0.00357891861482716,0.0018936703099481,0.0105));
#1743=CARTESIAN_POINT('',(-0.00378539905170864,-0.00126741870873238,0.0105));
#1744=CARTESIAN_POINT('',(-0.00378539905170864,-0.00414247974841991,0.0105));
#1745=CARTESIAN_POINT('',(-0.00378539905170864,-0.00414247974841991,0.0105));
#1746=CARTESIAN_POINT('',(-0.00378539905170864,-0.00126741870873238,0.0105));
#1747=CARTESIAN_POINT('',(-0.0035392974826791,-0.00455216987790077,0.0105));
#1748=CARTESIAN_POINT('',(-0.00329319591364956,-0.00496186000738163,0.0105));
#1749=CARTESIAN_POINT('',(-0.00329319591364956,-0.00496186000738163,0.0105));
#1750=CARTESIAN_POINT('',(-0.0035392974826791,-0.00455216987790077,0.0105));
#1751=CARTESIAN_POINT('',(-0.000254521085795701,-0.00496186000738163,0.0105));
#1752=CARTESIAN_POINT('',(0.00278415374205815,-0.00496186000738163,0.0105));
#1753=CARTESIAN_POINT('',(0.00278415374205815,-0.00496186000738163,0.0105));
#1754=CARTESIAN_POINT('',(-0.000254521085795701,-0.00496186000738163,0.0105));
#1755=CARTESIAN_POINT('',(0.00308193273067406,-0.00455216987790077,0.0105));
#1756=CARTESIAN_POINT('',(0.00337971171928997,-0.00414247974841991,0.0105));
#1757=CARTESIAN_POINT('',(0.00337971171928997,-0.00414247974841991,0.0105));
#1758=CARTESIAN_POINT('',(0.00308193273067406,-0.00455216987790077,0.0105));
#1759=CARTESIAN_POINT('',(0.00337971171928997,-0.00350794749724054,0.0105));
#1760=CARTESIAN_POINT('',(0.00337971171928997,-0.00287341524606116,0.0105));
#1761=CARTESIAN_POINT('',(0.00337971171928997,-0.00287341524606116,0.0105));
#1762=CARTESIAN_POINT('',(0.00337971171928997,-0.00350794749724054,0.0105));
#1763=CARTESIAN_POINT('',(0.00416939414979253,-0.00287341524606116,0.0105));
#1764=CARTESIAN_POINT('',(0.00495907658029508,-0.00287341524606116,0.0105));
#1765=CARTESIAN_POINT('',(0.00495907658029508,-0.00287341524606116,0.0105));
#1766=CARTESIAN_POINT('',(0.00416939414979253,-0.00287341524606116,0.0105));
#1767=CARTESIAN_POINT('',(-0.00102062458811227,0.000796697172004421,0.0105));
#1768=CARTESIAN_POINT('',(-0.00102062458811227,0.000796697172004421,0.01));
#1769=CARTESIAN_POINT('',(-0.00102062458811227,0.00330132429839767,0.01));
#1770=CARTESIAN_POINT('',(-0.00102062458811227,-0.00170792995438883,0.01));
#1771=CARTESIAN_POINT('',(-0.00102062458811227,0.00330132429839767,0.0105));
#1772=CARTESIAN_POINT('',(-0.00102062458811227,0.00330132429839767,0.0105));
#1773=CARTESIAN_POINT('',(-0.00102062458811227,0.000796697172004421,0.0105));
#1774=CARTESIAN_POINT('',(-0.00102062458811227,-0.00170792995438883,0.0105));
#1775=CARTESIAN_POINT('',(-0.00102062458811227,-0.00170792995438883,0.0105));
#1776=CARTESIAN_POINT('',(0.00173902855082982,0.00330132429839767,0.0105));
#1777=CARTESIAN_POINT('',(0.00173902855082982,0.00330132429839767,0.01));
#1778=CARTESIAN_POINT('',(0.0044986816897719,0.00330132429839767,0.01));
#1779=CARTESIAN_POINT('',(0.0044986816897719,0.00330132429839767,0.0105));
#1780=CARTESIAN_POINT('',(0.0044986816897719,0.00330132429839767,0.0105));
#1781=CARTESIAN_POINT('',(0.00173902855082982,0.00330132429839767,0.0105));
#1782=CARTESIAN_POINT('',(0.0044986816897719,0.000672900968195805,0.0105));
#1783=CARTESIAN_POINT('',(0.0044986816897719,0.000672900968195805,0.01));
#1784=CARTESIAN_POINT('',(0.0044986816897719,-0.00195552236200606,0.01));
#1785=CARTESIAN_POINT('',(0.0044986816897719,-0.00195552236200606,0.0105));
#1786=CARTESIAN_POINT('',(0.0044986816897719,-0.00195552236200606,0.0105));
#1787=CARTESIAN_POINT('',(0.0044986816897719,0.000672900968195805,0.0105));
#1788=CARTESIAN_POINT('',(0.00173902855082982,-0.00195552236200606,0.0105));
#1789=CARTESIAN_POINT('',(0.00173902855082982,-0.00195552236200606,0.01));
#1790=CARTESIAN_POINT('',(-0.00102062458811227,-0.00195552236200606,0.01));
#1791=CARTESIAN_POINT('',(-0.00102062458811227,-0.00195552236200606,0.0105));
#1792=CARTESIAN_POINT('',(-0.00102062458811227,-0.00195552236200606,0.0105));
#1793=CARTESIAN_POINT('',(0.00173902855082982,-0.00195552236200606,0.0105));
#1794=CARTESIAN_POINT('',(-0.00240431638031845,0.00124322912800538,0.0105));
#1795=CARTESIAN_POINT('',(-0.00240431638031845,0.00124322912800538,0.01));
#1796=CARTESIAN_POINT('',(-0.00297544870377579,0.00118696401718947,0.01));
#1797=CARTESIAN_POINT('',(-0.00183318405686111,0.00129949423882128,0.01));
#1798=CARTESIAN_POINT('',(-0.00183318405686111,0.00129949423882128,0.0105));
#1799=CARTESIAN_POINT('',(-0.00183318405686111,0.00129949423882128,0.0105));
#1800=CARTESIAN_POINT('',(-0.00240431638031845,0.00124322912800538,0.0105));
#1801=CARTESIAN_POINT('',(-0.00297544870377579,0.00118696401718947,0.0105));
#1802=CARTESIAN_POINT('',(-0.00297544870377579,0.00118696401718947,0.0105));
#1803=CARTESIAN_POINT('',(-0.00183318405686111,-0.000521754217912885,0.0105));
#1804=CARTESIAN_POINT('',(-0.00183318405686111,-0.000521754217912885,0.01));
#1805=CARTESIAN_POINT('',(-0.00183318405686111,-0.00234300267464705,0.01));
#1806=CARTESIAN_POINT('',(-0.00183318405686111,-0.00234300267464705,0.0105));
#1807=CARTESIAN_POINT('',(-0.00183318405686111,-0.00234300267464705,0.0105));
#1808=CARTESIAN_POINT('',(-0.00183318405686111,-0.000521754217912885,0.0105));
#1809=CARTESIAN_POINT('',(-0.00156337283473972,-0.00260459190044325,0.0105));
#1810=CARTESIAN_POINT('',(-0.00156337283473972,-0.00260459190044325,0.01));
#1811=CARTESIAN_POINT('',(-0.00129356161261833,-0.00286618112623946,0.01));
#1812=CARTESIAN_POINT('',(-0.00129356161261833,-0.00286618112623946,0.0105));
#1813=CARTESIAN_POINT('',(-0.00129356161261833,-0.00286618112623946,0.0105));
#1814=CARTESIAN_POINT('',(-0.00156337283473972,-0.00260459190044325,0.0105));
#1815=CARTESIAN_POINT('',(0.000435223941161587,-0.00286618112623946,0.0105));
#1816=CARTESIAN_POINT('',(0.000435223941161587,-0.00286618112623946,0.01));
#1817=CARTESIAN_POINT('',(0.0021640094949415,-0.00286618112623946,0.01));
#1818=CARTESIAN_POINT('',(0.0021640094949415,-0.00286618112623946,0.0105));
#1819=CARTESIAN_POINT('',(0.0021640094949415,-0.00286618112623946,0.0105));
#1820=CARTESIAN_POINT('',(0.000435223941161587,-0.00286618112623946,0.0105));
#1821=CARTESIAN_POINT('',(0.0021640094949415,-0.00343352888059945,0.0105));
#1822=CARTESIAN_POINT('',(0.0021640094949415,-0.00343352888059945,0.01));
#1823=CARTESIAN_POINT('',(0.0021640094949415,-0.00400087663495944,0.01));
#1824=CARTESIAN_POINT('',(0.0021640094949415,-0.00400087663495944,0.0105));
#1825=CARTESIAN_POINT('',(0.0021640094949415,-0.00400087663495944,0.0105));
#1826=CARTESIAN_POINT('',(0.0021640094949415,-0.00343352888059945,0.0105));
#1827=CARTESIAN_POINT('',(-0.000405719604417143,-0.00400087663495944,0.0105));
#1828=CARTESIAN_POINT('',(-0.000405719604417143,-0.00400087663495944,0.01));
#1829=CARTESIAN_POINT('',(-0.00297544870377579,-0.00400087663495944,0.01));
#1830=CARTESIAN_POINT('',(-0.00297544870377579,-0.00400087663495944,0.0105));
#1831=CARTESIAN_POINT('',(-0.00297544870377579,-0.00400087663495944,0.0105));
#1832=CARTESIAN_POINT('',(-0.000405719604417143,-0.00400087663495944,0.0105));
#1833=CARTESIAN_POINT('',(-0.00102062458811227,-0.00183172615819744,0.0105));
#1834=CARTESIAN_POINT('',(-0.00102062458811227,-0.00183172615819744,0.01));
#1835=CARTESIAN_POINT('',(-0.00102062458811227,-0.00183172615819744,0.0105));
#1836=CARTESIAN_POINT('',(-0.00297544870377579,-0.00140695630888499,0.0105));
#1837=CARTESIAN_POINT('',(-0.00297544870377579,-0.00140695630888499,0.01));
#1838=CARTESIAN_POINT('',(-0.00297544870377579,-0.00140695630888499,0.0105));
#1839=CARTESIAN_POINT('',(0.00495907658029508,0.000598557363346944,0.0105));
#1840=CARTESIAN_POINT('',(0.00495907658029508,0.000598557363346944,0.0105));
#1841=CARTESIAN_POINT('',(3.46944695195361E-18,1.7347234759768E-18,0.0105));
#1842=CARTESIAN_POINT('',(0.,0.,0.01));
#1843=CARTESIAN_POINT('',(0.,0.,0.01));
#1844=CARTESIAN_POINT('',(0.,-0.0065,0.01));
#1845=CARTESIAN_POINT('',(0.0111368967161872,-0.00709805806756909,0.00950970966215454));
#1846=CARTESIAN_POINT('',(0.0111368967161872,-0.00689870537837939,0.00967313977476969));
#1847=CARTESIAN_POINT('',(0.0111368967161872,-0.0066993526891897,0.00983656988738484));
#1848=CARTESIAN_POINT('',(0.0111368967161872,-0.0065,0.01));
#1849=CARTESIAN_POINT('',(-0.0111368967161872,-0.0065,0.01));
#1850=CARTESIAN_POINT('',(-0.0111368967161872,-0.0066993526891897,0.00983656988738484));
#1851=CARTESIAN_POINT('',(-0.0111368967161872,-0.0068987053783794,0.00967313977476969));
#1852=CARTESIAN_POINT('',(-0.0111368967161872,-0.00709805806756909,0.00950970966215454));
#1853=CARTESIAN_POINT('',(-0.0125,-0.00513689671618725,0.01));
#1854=CARTESIAN_POINT('',(-0.0125013680592441,-0.00549918327376009,0.01));
#1855=CARTESIAN_POINT('',(-0.0123552338169617,-0.00585252989967279,0.01));
#1856=CARTESIAN_POINT('',(-0.0118525298996728,-0.00635523381696171,0.01));
#1857=CARTESIAN_POINT('',(-0.0114991832737601,-0.00650136805924407,0.01));
#1858=CARTESIAN_POINT('',(-0.0111368967161872,-0.0065,0.01));
#1859=CARTESIAN_POINT('',(-0.0130980580675691,-0.00513689671618725,0.00950970966215454));
#1860=CARTESIAN_POINT('',(-0.0130941170063377,-0.00565222621818223,0.00953925642694387));
#1861=CARTESIAN_POINT('',(-0.0128804994522545,-0.00615723569435664,0.00955609233463606));
#1862=CARTESIAN_POINT('',(-0.0121572356943566,-0.00688049945225452,0.00955609233463605));
#1863=CARTESIAN_POINT('',(-0.0116522262181822,-0.0070941170063377,0.00953925642694387));
#1864=CARTESIAN_POINT('',(-0.0111368967161872,-0.00709805806756909,0.00950970966215454));
#1865=CARTESIAN_POINT('',(-0.0130980580675691,-0.00513689671618726,0.00950970966215454));
#1866=CARTESIAN_POINT('',(-0.0128987053783794,-0.00513689671618726,0.0096731397747697));
#1867=CARTESIAN_POINT('',(-0.0126993526891897,-0.00513689671618726,0.00983656988738485));
#1868=CARTESIAN_POINT('',(-0.0125,-0.00513689671618726,0.01));
#1869=CARTESIAN_POINT('',(0.0111368967161872,-0.0065,0.01));
#1870=CARTESIAN_POINT('',(0.0114991832737601,-0.00650136805924407,0.01));
#1871=CARTESIAN_POINT('',(0.0118525298996728,-0.00635523381696172,0.01));
#1872=CARTESIAN_POINT('',(0.0123552338169617,-0.00585252989967279,0.01));
#1873=CARTESIAN_POINT('',(0.0125013680592441,-0.00549918327376009,0.01));
#1874=CARTESIAN_POINT('',(0.0125,-0.00513689671618725,0.01));
#1875=CARTESIAN_POINT('',(0.0111368967161872,-0.00709805806756909,0.00950970966215454));
#1876=CARTESIAN_POINT('',(0.0116522262181822,-0.00709411700633771,0.00953925642694387));
#1877=CARTESIAN_POINT('',(0.0121572356943566,-0.00688049945225453,0.00955609233463605));
#1878=CARTESIAN_POINT('',(0.0128804994522545,-0.00615723569435665,0.00955609233463605));
#1879=CARTESIAN_POINT('',(0.0130941170063377,-0.00565222621818223,0.00953925642694387));
#1880=CARTESIAN_POINT('',(0.0130980580675691,-0.00513689671618725,0.00950970966215454));
#1881=CARTESIAN_POINT('',(0.0125,-0.00513689671618725,0.01));
#1882=CARTESIAN_POINT('',(0.0126993526891897,-0.00513689671618725,0.00983656988738485));
#1883=CARTESIAN_POINT('',(0.0128987053783794,-0.00513689671618725,0.00967313977476969));
#1884=CARTESIAN_POINT('',(0.0130980580675691,-0.00513689671618725,0.00950970966215454));
#1885=CARTESIAN_POINT('',(-0.0130980580675691,-0.0164,0.00950970966215454));
#1886=CARTESIAN_POINT('',(-0.0125,0.00513689671618725,0.01));
#1887=CARTESIAN_POINT('',(-0.0126993526891897,0.00513689671618725,0.00983656988738486));
#1888=CARTESIAN_POINT('',(-0.0128987053783794,0.00513689671618725,0.0096731397747697));
#1889=CARTESIAN_POINT('',(-0.0130980580675691,0.00513689671618725,0.00950970966215455));
#1890=CARTESIAN_POINT('',(0.0125,1.44560289664734E-18,0.01));
#1891=CARTESIAN_POINT('',(0.0130980580675691,0.00513689671618726,0.00950970966215454));
#1892=CARTESIAN_POINT('',(0.0128987053783794,0.00513689671618726,0.00967313977476969));
#1893=CARTESIAN_POINT('',(0.0126993526891897,0.00513689671618726,0.00983656988738484));
#1894=CARTESIAN_POINT('',(0.0125,0.00513689671618726,0.01));
#1895=CARTESIAN_POINT('',(-0.0111368967161872,0.0065,0.01));
#1896=CARTESIAN_POINT('',(-0.0114991832737601,0.00650136805924407,0.01));
#1897=CARTESIAN_POINT('',(-0.0118525298996728,0.00635523381696171,0.01));
#1898=CARTESIAN_POINT('',(-0.0123552338169617,0.00585252989967279,0.01));
#1899=CARTESIAN_POINT('',(-0.012501368059244,0.00549918327376009,0.01));
#1900=CARTESIAN_POINT('',(-0.0125,0.00513689671618726,0.01));
#1901=CARTESIAN_POINT('',(-0.0111368967161872,0.0070980580675691,0.00950970966215454));
#1902=CARTESIAN_POINT('',(-0.0116522262181822,0.00709411700633771,0.00953925642694387));
#1903=CARTESIAN_POINT('',(-0.0121572356943566,0.00688049945225452,0.00955609233463605));
#1904=CARTESIAN_POINT('',(-0.0128804994522545,0.00615723569435665,0.00955609233463605));
#1905=CARTESIAN_POINT('',(-0.0130941170063377,0.00565222621818223,0.00953925642694387));
#1906=CARTESIAN_POINT('',(-0.0130980580675691,0.00513689671618726,0.00950970966215454));
#1907=CARTESIAN_POINT('',(-0.0111368967161872,0.0070980580675691,0.00950970966215454));
#1908=CARTESIAN_POINT('',(-0.0111368967161872,0.0068987053783794,0.0096731397747697));
#1909=CARTESIAN_POINT('',(-0.0111368967161872,0.0066993526891897,0.00983656988738485));
#1910=CARTESIAN_POINT('',(-0.0111368967161872,0.00650000000000001,0.01));
#1911=CARTESIAN_POINT('',(0.0125,0.00513689671618726,0.01));
#1912=CARTESIAN_POINT('',(0.0125013680592441,0.00549918327376009,0.01));
#1913=CARTESIAN_POINT('',(0.0123552338169617,0.00585252989967279,0.01));
#1914=CARTESIAN_POINT('',(0.0118525298996728,0.00635523381696172,0.01));
#1915=CARTESIAN_POINT('',(0.0114991832737601,0.00650136805924407,0.01));
#1916=CARTESIAN_POINT('',(0.0111368967161873,0.0065,0.01));
#1917=CARTESIAN_POINT('',(0.0130980580675691,0.00513689671618726,0.00950970966215454));
#1918=CARTESIAN_POINT('',(0.0130941170063377,0.00565222621818223,0.00953925642694387));
#1919=CARTESIAN_POINT('',(0.0128804994522545,0.00615723569435665,0.00955609233463606));
#1920=CARTESIAN_POINT('',(0.0121572356943566,0.00688049945225453,0.00955609233463605));
#1921=CARTESIAN_POINT('',(0.0116522262181822,0.00709411700633771,0.00953925642694387));
#1922=CARTESIAN_POINT('',(0.0111368967161873,0.0070980580675691,0.00950970966215454));
#1923=CARTESIAN_POINT('',(0.0111368967161873,0.00650000000000001,0.01));
#1924=CARTESIAN_POINT('',(0.0111368967161873,0.0066993526891897,0.00983656988738485));
#1925=CARTESIAN_POINT('',(0.0111368967161873,0.0068987053783794,0.0096731397747697));
#1926=CARTESIAN_POINT('',(0.0111368967161873,0.0070980580675691,0.00950970966215454));
#1927=CARTESIAN_POINT('',(-0.045,0.0070980580675691,0.00950970966215454));
#1928=MECHANICAL_DESIGN_GEOMETRIC_PRESENTATION_REPRESENTATION('',(#1157),
#1929);
#1929=(
GEOMETRIC_REPRESENTATION_CONTEXT(3)
GLOBAL_UNCERTAINTY_ASSIGNED_CONTEXT((#1930))
GLOBAL_UNIT_ASSIGNED_CONTEXT((#1933,#1932,#1931))
REPRESENTATION_CONTEXT('Part 1','TOP_LEVEL_ASSEMBLY_PART')
);
#1930=UNCERTAINTY_MEASURE_WITH_UNIT(LENGTH_MEASURE(2.E-5),#1933,
'DISTANCE_ACCURACY_VALUE','Maximum Tolerance applied to model');
#1931=(
NAMED_UNIT(*)
SI_UNIT($,.STERADIAN.)
SOLID_ANGLE_UNIT()
);
#1932=(
NAMED_UNIT(*)
PLANE_ANGLE_UNIT()
SI_UNIT($,.RADIAN.)
);
#1933=(
LENGTH_UNIT()
NAMED_UNIT(*)
SI_UNIT($,.METRE.)
);
#1934=PRODUCT_DEFINITION_SHAPE('','',#1935);
#1935=PRODUCT_DEFINITION('','',#1937,#1936);
#1936=PRODUCT_DEFINITION_CONTEXT('',#1943,'design');
#1937=PRODUCT_DEFINITION_FORMATION_WITH_SPECIFIED_SOURCE('','',#1939,
 .NOT_KNOWN.);
#1938=PRODUCT_RELATED_PRODUCT_CATEGORY('','',(#1939));
#1939=PRODUCT('Part 1','Part 1','Part 1',(#1941));
#1940=PRODUCT_CATEGORY('','');
#1941=PRODUCT_CONTEXT('',#1943,'mechanical');
#1942=APPLICATION_PROTOCOL_DEFINITION('international standard',
'ap242_managed_model_based_3d_engineering',2020,#1943);
#1943=APPLICATION_CONTEXT('managed model based 3d engineering');
ENDSEC;
END-ISO-10303-21;
